<mxfile host="app.diagrams.net" modified="2021-11-19T04:34:11.371Z" agent="5.0 (Windows NT 10.0; Win64; x64) AppleWebKit/537.36 (KHTML, like Gecko) Chrome/95.0.4638.69 Safari/537.36" etag="QsJfyMlB4CAx3akEc8Q0" version="15.7.3" type="github">
  <diagram id="_HbTJziGMP2dEaYZIe5g" name="Page-1">
    <mxGraphModel dx="1328" dy="710" grid="1" gridSize="10" guides="1" tooltips="1" connect="1" arrows="1" fold="1" page="1" pageScale="1" pageWidth="1169" pageHeight="827" math="0" shadow="0">
      <root>
        <mxCell id="0" />
        <mxCell id="1" parent="0" />
        <mxCell id="5JtWziqyKiXYq5l_9ciY-1" value="" style="shape=image;imageAspect=0;aspect=fixed;verticalLabelPosition=bottom;verticalAlign=top;image=data:image/jpeg,/9j/4AAQSkZJRgABAQEAZQBlAAD/4RDoRXhpZgAATU0AKgAAAAgABAE7AAIAAAAKAAAISodpAAQAAAABAAAIVJydAAEAAAAUAAAQzOocAAcAAAgMAAAAPgAAAAAc6gAAAAgAAAAAAAAAAAAAAAAAAAAAAAAAAAAAAAAAAAAAAAAAAAAAAAAAAAAAAAAAAAAAAAAAAAAAAAAAAAAAAAAAAAAAAAAAAAAAAAAAAAAAAAAAAAAAAAAAAAAAAAAAAAAAAAAAAAAAAAAAAAAAAAAAAAAAAAAAAAAAAAAAAAAAAAAAAAAAAAAAAAAAAAAAAAAAAAAAAAAAAAAAAAAAAAAAAAAAAAAAAAAAAAAAAAAAAAAAAAAAAAAAAAAAAAAAAAAAAAAAAAAAAAAAAAAAAAAAAAAAAAAAAAAAAAAAAAAAAAAAAAAAAAAAAAAAAAAAAAAAAAAAAAAAAAAAAAAAAAAAAAAAAAAAAAAAAAAAAAAAAAAAAAAAAAAAAAAAAAAAAAAAAAAAAAAAAAAAAAAAAAAAAAAAAAAAAAAAAAAAAAAAAAAAAAAAAAAAAAAAAAAAAAAAAAAAAAAAAAAAAAAAAAAAAAAAAAAAAAAAAAAAAAAAAAAAAAAAAAAAAAAAAAAAAAAAAAAAAAAAAAAAAAAAAAAAAAAAAAAAAAAAAAAAAAAAAAAAAAAAAAAAAAAAAAAAAAAAAAAAAAAAAAAAAAAAAAAAAAAAAAAAAAAAAAAAAAAAAAAAAAAAAAAAAAAAAAAAAAAAAAAAAAAAAAAAAAAAAAAAAAAAAAAAAAAAAAAAAAAAAAAAAAAAAAAAAAAAAAAAAAAAAAAAAAAAAAAAAAAAAAAAAAAAAAAAAAAAAAAAAAAAAAAAAAAAAAAAAAAAAAAAAAAAAAAAAAAAAAAAAAAAAAAAAAAAAAAAAAAAAAAAAAAAAAAAAAAAAAAAAAAAAAAAAAAAAAAAAAAAAAAAAAAAAAAAAAAAAAAAAAAAAAAAAAAAAAAAAAAAAAAAAAAAAAAAAAAAAAAAAAAAAAAAAAAAAAAAAAAAAAAAAAAAAAAAAAAAAAAAAAAAAAAAAAAAAAAAAAAAAAAAAAAAAAAAAAAAAAAAAAAAAAAAAAAAAAAAAAAAAAAAAAAAAAAAAAAAAAAAAAAAAAAAAAAAAAAAAAAAAAAAAAAAAAAAAAAAAAAAAAAAAAAAAAAAAAAAAAAAAAAAAAAAAAAAAAAAAAAAAAAAAAAAAAAAAAAAAAAAAAAAAAAAAAAAAAAAAAAAAAAAAAAAAAAAAAAAAAAAAAAAAAAAAAAAAAAAAAAAAAAAAAAAAAAAAAAAAAAAAAAAAAAAAAAAAAAAAAAAAAAAAAAAAAAAAAAAAAAAAAAAAAAAAAAAAAAAAAAAAAAAAAAAAAAAAAAAAAAAAAAAAAAAAAAAAAAAAAAAAAAAAAAAAAAAAAAAAAAAAAAAAAAAAAAAAAAAAAAAAAAAAAAAAAAAAAAAAAAAAAAAAAAAAAAAAAAAAAAAAAAAAAAAAAAAAAAAAAAAAAAAAAAAAAAAAAAAAAAAAAAAAAAAAAAAAAAAAAAAAAAAAAAAAAAAAAAAAAAAAAAAAAAAAAAAAAAAAAAAAAAAAAAAAAAAAAAAAAAAAAAAAAAAAAAAAAAAAAAAAAAAAAAAAAAAAAAAAAAAAAAAAAAAAAAAAAAAAAAAAAAAAAAAAAAAAAAAAAAAAAAAAAAAAAAAAAAAAAAAAAAAAAAAAAAAAAAAAAAAAAAAAAAAAAAAAAAAAAAAAAAAAAAAAAAAAAAAAAAAAAAAAAAAAAAAAAAAAAAAAAAAAAAAAAAAAAAAAAAAAAAAAAAAAAAAAAAAAAAAAAAAAAAAAAAAAAAAAAAAAAAAAAAAAAAAAAAAAAAAAAAAAAAAAAAAAAAAAAAAAAAAAAAAAAAAAAAAAAAAAAAAAAAAAAAAAAAAAAAAAAAAAAAAAAAAAAAAAAAAAAAAAAAAAAAAAAAAAAAAAAAAAAAAAAAAAAAAAAAAAAAAAAAAAAAAAAAAAAAAAAAAAAAAAAAAAAAAAAAAAAAAAAAAAAAAAAAAAAAAAAAAAAAAAAAAAAAAAAAAAAAAAAAAAAAAAAAAAAAAAAAAAAAAAAAAAAAAAAAAAAAAAAAAAAAAAAAAAAAAAAAAAAAAAAAAAAAAAAAAAAAAAAAAAAAAAAAAAAAAAAAAAAAAAAAAAAAAAAAAAAAAAAAAAAAAAAAAAAAAAAAAAAAAAAAAAAAAAAAAAAAAAAAAAAAAAAAAAAAAAAAAAAAAAAAAAAAAAAAAAAAAAAAAAAAAAAAAAAAAAAAAAAAAAAAAAAAAAAAAAAAAAAAAAAAAAAAAAAAAAAAAAAAAAAAAAAAAAAAAAAAAAAAAAAAAAAAAAAAAAAAAAAAAAAAAAAAAAAAAAAAAAAAAAAAAAAAAAAAAAAAAAAAAAAAAAAAAAAAAAAAAAAAAAAAAAAAAAAAAAAAAAAAAAAAAAAAAAAAAAAAAAAAAAAAAAAAAAAAAAAAAAAAAAAAAAAAAAAAAAAAAAAAAAAAAAAAAAAAAAAAAAAAAAAAAAAAAAAAAAAAAAAAAAAAAAAAAAAAAAAAAAAAAAAAAAAAAAAAAAAAAAAAAAAAAAAAAAAAAAAAAAAAAAAAAAAAAAAAAAAAAAAAAAAAAAAAAAAAAAAAAAAAAAAAAAAAAAAAAAAAAAAAAAAAAAAAAAAAAAAAAAAAAAAAAAAAAAAAAAAAAAAAAAAAAAAAAAAAAAAAAAAAAAAAAAAAAAAAAAAAAAAAAAAAAAAAAAAAAAAAAAAAAAAAAAAAAAAAAAAAAAAAAAAAAAAAAAAAAAAAAAAAAAAAAAAAAAAAAAAAAAAAAAAAAAAAAAAAAAFNhZ2Fyc29mdAAABZADAAIAAAAUAAAQopAEAAIAAAAUAAAQtpKRAAIAAAADNTYAAJKSAAIAAAADNTYAAOocAAcAAAgMAAAIlgAAAAAc6gAAAAgAAAAAAAAAAAAAAAAAAAAAAAAAAAAAAAAAAAAAAAAAAAAAAAAAAAAAAAAAAAAAAAAAAAAAAAAAAAAAAAAAAAAAAAAAAAAAAAAAAAAAAAAAAAAAAAAAAAAAAAAAAAAAAAAAAAAAAAAAAAAAAAAAAAAAAAAAAAAAAAAAAAAAAAAAAAAAAAAAAAAAAAAAAAAAAAAAAAAAAAAAAAAAAAAAAAAAAAAAAAAAAAAAAAAAAAAAAAAAAAAAAAAAAAAAAAAAAAAAAAAAAAAAAAAAAAAAAAAAAAAAAAAAAAAAAAAAAAAAAAAAAAAAAAAAAAAAAAAAAAAAAAAAAAAAAAAAAAAAAAAAAAAAAAAAAAAAAAAAAAAAAAAAAAAAAAAAAAAAAAAAAAAAAAAAAAAAAAAAAAAAAAAAAAAAAAAAAAAAAAAAAAAAAAAAAAAAAAAAAAAAAAAAAAAAAAAAAAAAAAAAAAAAAAAAAAAAAAAAAAAAAAAAAAAAAAAAAAAAAAAAAAAAAAAAAAAAAAAAAAAAAAAAAAAAAAAAAAAAAAAAAAAAAAAAAAAAAAAAAAAAAAAAAAAAAAAAAAAAAAAAAAAAAAAAAAAAAAAAAAAAAAAAAAAAAAAAAAAAAAAAAAAAAAAAAAAAAAAAAAAAAAAAAAAAAAAAAAAAAAAAAAAAAAAAAAAAAAAAAAAAAAAAAAAAAAAAAAAAAAAAAAAAAAAAAAAAAAAAAAAAAAAAAAAAAAAAAAAAAAAAAAAAAAAAAAAAAAAAAAAAAAAAAAAAAAAAAAAAAAAAAAAAAAAAAAAAAAAAAAAAAAAAAAAAAAAAAAAAAAAAAAAAAAAAAAAAAAAAAAAAAAAAAAAAAAAAAAAAAAAAAAAAAAAAAAAAAAAAAAAAAAAAAAAAAAAAAAAAAAAAAAAAAAAAAAAAAAAAAAAAAAAAAAAAAAAAAAAAAAAAAAAAAAAAAAAAAAAAAAAAAAAAAAAAAAAAAAAAAAAAAAAAAAAAAAAAAAAAAAAAAAAAAAAAAAAAAAAAAAAAAAAAAAAAAAAAAAAAAAAAAAAAAAAAAAAAAAAAAAAAAAAAAAAAAAAAAAAAAAAAAAAAAAAAAAAAAAAAAAAAAAAAAAAAAAAAAAAAAAAAAAAAAAAAAAAAAAAAAAAAAAAAAAAAAAAAAAAAAAAAAAAAAAAAAAAAAAAAAAAAAAAAAAAAAAAAAAAAAAAAAAAAAAAAAAAAAAAAAAAAAAAAAAAAAAAAAAAAAAAAAAAAAAAAAAAAAAAAAAAAAAAAAAAAAAAAAAAAAAAAAAAAAAAAAAAAAAAAAAAAAAAAAAAAAAAAAAAAAAAAAAAAAAAAAAAAAAAAAAAAAAAAAAAAAAAAAAAAAAAAAAAAAAAAAAAAAAAAAAAAAAAAAAAAAAAAAAAAAAAAAAAAAAAAAAAAAAAAAAAAAAAAAAAAAAAAAAAAAAAAAAAAAAAAAAAAAAAAAAAAAAAAAAAAAAAAAAAAAAAAAAAAAAAAAAAAAAAAAAAAAAAAAAAAAAAAAAAAAAAAAAAAAAAAAAAAAAAAAAAAAAAAAAAAAAAAAAAAAAAAAAAAAAAAAAAAAAAAAAAAAAAAAAAAAAAAAAAAAAAAAAAAAAAAAAAAAAAAAAAAAAAAAAAAAAAAAAAAAAAAAAAAAAAAAAAAAAAAAAAAAAAAAAAAAAAAAAAAAAAAAAAAAAAAAAAAAAAAAAAAAAAAAAAAAAAAAAAAAAAAAAAAAAAAAAAAAAAAAAAAAAAAAAAAAAAAAAAAAAAAAAAAAAAAAAAAAAAAAAAAAAAAAAAAAAAAAAAAAAAAAAAAAAAAAAAAAAAAAAAAAAAAAAAAAAAAAAAAAAAAAAAAAAAAAAAAAAAAAAAAAAAAAAAAAAAAAAAAAAAAAAAAAAAAAAAAAAAAAAAAAAAAAAAAAAAAAAAAAAAAAAAAAAAAAAAAAAAAAAAAAAAAAAAAAAAAAAAAAAAAAAAAAAAAAAAAAAAAAAAAAAAAAAAAAAAAAAAAAAAAAAAAAAAAAAAAAAAAAAAAAAAAAAAAAAAAAAAAAAAAAAAAAAAAAAAAAAAAAAAAAAAAAAAAAAAAAAAAAAAAAAAAAAAAAAAAAAAAAAAAAAAAAAAAAAAAAAAAAAAAAAAAAAAAAAAAAAAAAAAAAAAAAAAAAAAAAAAAAAAAAAAAAAAAAAAAAAAAAAAAAAAAAAAAAAAAAAAAAAAAAAAAAAAAAAAAAAAAAAAAAAAAAAAAAAAAAAAAAAAAAAAAAAAAAAAAAAAAAAAAAAAAAAAAAAAAAAAAAAAAAAAAAAAAAAAAAAAAAAAAAAAAAAAAAAAAAAAAAAAAAAAAAAAAAAAAAAAAAAAAAAAAAAAAAAAAAAAAAAAAAAAAAAAAAAAAAAAAAAAAAAAAAAAAAAAAAAAAAAAAAAAAAAAAAAAAAAAAAAAAAAAAAAAAAAAAAAAAAAAAAAAAAAAAAAAAAAAAAAAAAAAAAAAAAAAAAAAAAAAAAAAAAAAAAAAAAAAAAAAAAAAAAAAAAAAAAAAAAAAAAAAAAAAAAAAAAAAAAAAAAAAAAAAAAAAAAAAAAAAAAAAAAAAAAAAAAAAAAAAAAAAAAAAAAAAAAAAAAAAAAAAAAAAAAAAAAAAAAAAAAAAAAAAAAAAAAAAAAAAAAAAAAAAAAAAAAAAAAAAAAAAAAAAAAAAAAAAAAAAAAAAAAAAAAAAAAAAAAAAAAAAAAAAAAAAAAAAAAAAAAAAAAAAAAAAAAAAAADIwMjE6MTE6MTggMjM6MzA6MzEAMjAyMToxMToxOCAyMzozMDozMQAAAFMAYQBnAGEAcgBzAG8AZgB0AAAA/+ELHGh0dHA6Ly9ucy5hZG9iZS5jb20veGFwLzEuMC8APD94cGFja2V0IGJlZ2luPSfvu78nIGlkPSdXNU0wTXBDZWhpSHpyZVN6TlRjemtjOWQnPz4NCjx4OnhtcG1ldGEgeG1sbnM6eD0iYWRvYmU6bnM6bWV0YS8iPjxyZGY6UkRGIHhtbG5zOnJkZj0iaHR0cDovL3d3dy53My5vcmcvMTk5OS8wMi8yMi1yZGYtc3ludGF4LW5zIyI+PHJkZjpEZXNjcmlwdGlvbiByZGY6YWJvdXQ9InV1aWQ6ZmFmNWJkZDUtYmEzZC0xMWRhLWFkMzEtZDMzZDc1MTgyZjFiIiB4bWxuczpkYz0iaHR0cDovL3B1cmwub3JnL2RjL2VsZW1lbnRzLzEuMS8iLz48cmRmOkRlc2NyaXB0aW9uIHJkZjphYm91dD0idXVpZDpmYWY1YmRkNS1iYTNkLTExZGEtYWQzMS1kMzNkNzUxODJmMWIiIHhtbG5zOnhtcD0iaHR0cDovL25zLmFkb2JlLmNvbS94YXAvMS4wLyI+PHhtcDpDcmVhdGVEYXRlPjIwMjEtMTEtMThUMjM6MzA6MzEuNTYyPC94bXA6Q3JlYXRlRGF0ZT48L3JkZjpEZXNjcmlwdGlvbj48cmRmOkRlc2NyaXB0aW9uIHJkZjphYm91dD0idXVpZDpmYWY1YmRkNS1iYTNkLTExZGEtYWQzMS1kMzNkNzUxODJmMWIiIHhtbG5zOmRjPSJodHRwOi8vcHVybC5vcmcvZGMvZWxlbWVudHMvMS4xLyI+PGRjOmNyZWF0b3I+PHJkZjpTZXEgeG1sbnM6cmRmPSJodHRwOi8vd3d3LnczLm9yZy8xOTk5LzAyLzIyLXJkZi1zeW50YXgtbnMjIj48cmRmOmxpPlNhZ2Fyc29mdDwvcmRmOmxpPjwvcmRmOlNlcT4NCgkJCTwvZGM6Y3JlYXRvcj48L3JkZjpEZXNjcmlwdGlvbj48L3JkZjpSREY+PC94OnhtcG1ldGE+DQogICAgICAgICAgICAgICAgICAgICAgICAgICAgICAgICAgICAgICAgICAgICAgICAgICAgICAgICAgICAgICAgICAgICAgICAgICAgICAgICAgICAgICAgICAgICAgICAgICAgCiAgICAgICAgICAgICAgICAgICAgICAgICAgICAgICAgICAgICAgICAgICAgICAgICAgICAgICAgICAgICAgICAgICAgICAgICAgICAgICAgICAgICAgICAgICAgICAgICAgICAKICAgICAgICAgICAgICAgICAgICAgICAgICAgICAgICAgICAgICAgICAgICAgICAgICAgICAgICAgICAgICAgICAgICAgICAgICAgICAgICAgICAgICAgICAgICAgICAgICAgIAogICAgICAgICAgICAgICAgICAgICAgICAgICAgICAgICAgICAgICAgICAgICAgICAgICAgICAgICAgICAgICAgICAgICAgICAgICAgICAgICAgICAgICAgICAgICAgICAgICAgCiAgICAgICAgICAgICAgICAgICAgICAgICAgICAgICAgICAgICAgICAgICAgICAgICAgICAgICAgICAgICAgICAgICAgICAgICAgICAgICAgICAgICAgICAgICAgICAgICAgICAKICAgICAgICAgICAgICAgICAgICAgICAgICAgICAgICAgICAgICAgICAgICAgICAgICAgICAgICAgICAgICAgICAgICAgICAgICAgICAgICAgICAgICAgICAgICAgICAgICAgIAogICAgICAgICAgICAgICAgICAgICAgICAgICAgICAgICAgICAgICAgICAgICAgICAgICAgICAgICAgICAgICAgICAgICAgICAgICAgICAgICAgICAgICAgICAgICAgICAgICAgCiAgICAgICAgICAgICAgICAgICAgICAgICAgICAgICAgICAgICAgICAgICAgICAgICAgICAgICAgICAgICAgICAgICAgICAgICAgICAgICAgICAgICAgICAgICAgICAgICAgICAKICAgICAgICAgICAgICAgICAgICAgICAgICAgICAgICAgICAgICAgICAgICAgICAgICAgICAgICAgICAgICAgICAgICAgICAgICAgICAgICAgICAgICAgICAgICAgICAgICAgIAogICAgICAgICAgICAgICAgICAgICAgICAgICAgICAgICAgICAgICAgICAgICAgICAgICAgICAgICAgICAgICAgICAgICAgICAgICAgICAgICAgICAgICAgICAgICAgICAgICAgCiAgICAgICAgICAgICAgICAgICAgICAgICAgICAgICAgICAgICAgICAgICAgICAgICAgICAgICAgICAgICAgICAgICAgICAgICAgICAgICAgICAgICAgICAgICAgICAgICAgICAKICAgICAgICAgICAgICAgICAgICAgICAgICAgICAgICAgICAgICAgICAgICAgICAgICAgICAgICAgICAgICAgICAgICAgICAgICAgICAgICAgICAgICAgICAgICAgICAgICAgIAogICAgICAgICAgICAgICAgICAgICAgICAgICAgICAgICAgICAgICAgICAgICAgICAgICAgICAgICAgICAgICAgICAgICAgICAgICAgICAgICAgICAgICAgICAgICAgICAgICAgCiAgICAgICAgICAgICAgICAgICAgICAgICAgICAgICAgICAgICAgICAgICAgICAgICAgICAgICAgICAgICAgICAgICAgICAgICAgICAgICAgICAgICAgICAgICAgICAgICAgICAKICAgICAgICAgICAgICAgICAgICAgICAgICAgICAgICAgICAgICAgICAgICAgICAgICAgICAgICAgICAgICAgICAgICAgICAgICAgICAgICAgICAgICAgICAgICAgICAgICAgIAogICAgICAgICAgICAgICAgICAgICAgICAgICAgICAgICAgICAgICAgICAgICAgICAgICAgICAgICAgICAgICAgICAgICAgICAgICAgICAgICAgICAgICAgICAgICAgICAgICAgCiAgICAgICAgICAgICAgICAgICAgICAgICAgICAgICAgICAgICAgICAgICAgICAgICAgICAgICAgICAgICAgICAgICAgICAgICAgICAgICAgICAgICAgICAgICAgICAgICAgICAKICAgICAgICAgICAgICAgICAgICAgICAgICAgICAgICAgICAgICAgICAgICAgICAgICAgICAgICAgICAgICAgICAgICAgICAgICAgICAgICAgICAgICAgICAgICAgICAgICAgIAogICAgICAgICAgICAgICAgICAgICAgICAgICAgICAgICAgICAgICAgICAgICAgICAgICAgICAgICAgICAgICAgICAgICAgICAgICAgICAgICAgICAgICAgICAgICAgICAgICAgCiAgICAgICAgICAgICAgICAgICAgICAgICAgICAgICAgICAgICAgICAgICAgICAgICAgICAgICAgICAgICAgICAgICAgICAgICAgICAgICAgICAgICAgICAgICAgICAgICAgICAKICAgICAgICAgICAgICAgICAgICAgICAgICAgIDw/eHBhY2tldCBlbmQ9J3cnPz7/2wBDAAcFBQYFBAcGBQYIBwcIChELCgkJChUPEAwRGBUaGRgVGBcbHichGx0lHRcYIi4iJSgpKywrGiAvMy8qMicqKyr/2wBDAQcICAoJChQLCxQqHBgcKioqKioqKioqKioqKioqKioqKioqKioqKioqKioqKioqKioqKioqKioqKioqKioqKir/wAARCAF2A0ADASIAAhEBAxEB/8QAHwAAAQUBAQEBAQEAAAAAAAAAAAECAwQFBgcICQoL/8QAtRAAAgEDAwIEAwUFBAQAAAF9AQIDAAQRBRIhMUEGE1FhByJxFDKBkaEII0KxwRVS0fAkM2JyggkKFhcYGRolJicoKSo0NTY3ODk6Q0RFRkdISUpTVFVWV1hZWmNkZWZnaGlqc3R1dnd4eXqDhIWGh4iJipKTlJWWl5iZmqKjpKWmp6ipqrKztLW2t7i5usLDxMXGx8jJytLT1NXW19jZ2uHi4+Tl5ufo6erx8vP09fb3+Pn6/8QAHwEAAwEBAQEBAQEBAQAAAAAAAAECAwQFBgcICQoL/8QAtREAAgECBAQDBAcFBAQAAQJ3AAECAxEEBSExBhJBUQdhcRMiMoEIFEKRobHBCSMzUvAVYnLRChYkNOEl8RcYGRomJygpKjU2Nzg5OkNERUZHSElKU1RVVldYWVpjZGVmZ2hpanN0dXZ3eHl6goOEhYaHiImKkpOUlZaXmJmaoqOkpaanqKmqsrO0tba3uLm6wsPExcbHyMnK0tPU1dbX2Nna4uPk5ebn6Onq8vP09fb3+Pn6/9oADAMBAAIRAxEAPwD6RooooAKKKKACiiigAooooAKKKKACiiigAooooAKKKKACiiigAooooAKKKKACiiigDK0mznttV1maePbHdXSyRHcDuUQxqTx05Ujn0pPDljPY6ZIb1Nl1cXEs8wyCcs5xyPRdo/CtaitpVpSTXe34Kx0SxEpRcX1t/wCSqy/4Jzl1ps9pqGrS22mfbRqyqC6ug2EJsw+4g7eAeNx5PHrtadbPZaXa2sshleGFI2kPViABmrNFE60pxUX/AFZWX4BUxE6kVF9LfgrL8Oxk65bX2orDp1qpitbgn7XchwCsfdF5zubpnsM85xUWg6fd6LcXGm7TJpa/vLOUuCYgTzEQTnA7H047Vt0U/byVP2dtP17+vT0GsRJUvY2Vv17+vT0MzXbSe8trRbZN7R3sErDIGFWQFjz7Cna/azXuizQWqb5WZCFyBnDqT19ga0aKmNWUeW3R3JjWlDlt9l3/AC/yKGtW811pE0VtBDcOdp8qbIVwGBIBBGGxnB7HBrO0PSGg1efUntprVXt1gSK5m86Y4ZmLM+5sjkADccAdq6CiqjWlGm6a2f8AX6DhiJwpOktn/wAD5dOwUUUVgc4UUUUAFFFFABRRRQAUUUUAFFFFABRRRQBzfxH/AOSWeK/+wLef+iHo8ef8i7a/9hrSv/Thb0fEf/klniv/ALAt5/6Iejx5/wAi7a/9hrSv/Thb0AdJRRRQAUUUUAUrnWtKsroW15qdnbznGIpbhVY56cE5p/8AalgJ4YDfW3mz58mPzl3SY67Rnnp2qtfwyXmsWNu0bm0jDXMrY+VnUgIp/ElvqgrN1i0hTyrOxs7lJlkjlQR2+6Kfa+4K8gB2hTk8lfbPSuuFKnLlWt3/AF/Xl1O6nRpT5Vrd+n9efp1W5vx3ltMjvFcRSLH99lcEL359KcLiEtGolQtIpZAGGXUYyR6jkfnUMVra6ZDM9vAVGN7iMFmbA7DqT7Vl6JaT2F6/2i3cJdKXiwSwthnPknsBzkHpnI6BazUISUmntt5mSp05RlKL228/+GNOTVtOhvfsc2oWsd1jPkNMofGM525z05o/tbTvtX2b7fa+fs8zyvOXdtxndjOcY5zWMYHi164S1OoP9snBuYJoB9nKbApZZAnoowN+faoBagXv9mCyuMjUPN3+Q/l+T5eM+ZjHT5cZzW6w9O272v8A1/XzOlYWk1u9r/1pt/Vzp4Z4biPfbypKmcbkYMM+nFSVDa2kFlD5VrGI0yTgepqauKVr+7sefLlv7uwUUUUiQooooAzdX8R6H4f8n+3tZ0/TPP3eV9tukh8zbjO3cRnGRnHqKNI8R6H4g87+wdZ0/U/I2+b9iukm8vdnG7aTjODjPoazb7/kqehf9gXUv/R9jRY/8lT13/sC6b/6PvqAOkooooAKydY1LUdPki+yWNrcpK6xoJLto3ZyegURsMAc5z0B9K1qqT2Jn1S0u2l+S2SQCLb1ZsANnPGAGHT+KtaTgpXmrr5/obUXBTvUV1r3/QyJfE11E05fSwiWaGW6MlwVZE8x1UqNvzZEZbnHBHJrU06+ubx51ubF7URsQhZs+YNzLnoOyg/8CFU9T0Ga/vLh4byOGC8hSC6jeDeXVSx+Vtw2khyOQe1bRzg44PbIrarKjyLkWr9dNv8Ag/I3rSw/IvZxV366bd9N7/K3UzbTVnurz7ILUpPFn7UC3EX93Bx827qOnGScHiqzeId3iKbSrcWLNBjesl5smYld3yx7Tu4I5yKsW2j/AGW5iuY5ybg5+1SFf+PgH1GeMHGOuBkd6LvTLq8ux518pshNHMIfJxIrIQQBIGHy5XJBUnk846New5n2t57/ANbbabu5S+rc7vtbz3v+PktNN3coweJbqUq8mmCGBZIoJS858xJpEVtuzbyAXVScg5zxWppV7cX1n5t3ZPZScfunbJ5UH0HQkj8KpSaDM+pySi8jFnLdR3ckBgy5kQKBh92AMopxtJ681tVNaVHlXs1r89PvJxEsPyr2UVd+un3/AD8trBRRRXKcQUUUUAFc34o/5GLwZ/2GpP8A033ldJXN+KP+Ri8Gf9hqT/033lAHSVzdj/yVPXf+wLpv/o++rpK5ux/5Knrv/YF03/0ffUAdJRRRQAUUUUAFFFFABRRRQAUUUUAFFFFAGboP/IOl/wCv26/9KJK0qzdB/wCQdL/1+3X/AKUSVpUAFFFFABRRRQAUUUUAFFFFABRRRQAUUUUAFFFFABRRRQAUUUUAFFFFABRRRQAUUUUAFFFFABRWTMt1d69cW0Wo3FpFDbQyBYUjOWZpQSS6N2QVJ/Zd3/0HdQ/792//AMaquXzL5Ut2aVFZv9l3f/Qd1D/v3b//ABqj+y7v/oO6h/37t/8A41RyruHKu/5/5GlRWb/Zd3/0HdQ/792//wAao/su7/6Duof9+7f/AONUcq7hyrv+f+RpUVm/2Xd/9B3UP+/dv/8AGqP7Lu/+g7qH/fu3/wDjVHKu4cq7/n/kaVFZv9l3f/Qd1D/v3b//ABqj+y7v/oO6h/37t/8A41RyruHKu/5/5GlRWb/Zd3/0HdQ/792//wAao/su7/6Duof9+7f/AONUcq7hyrv+f+RpUVm/2Xd/9B3UP+/dv/8AGqP7Lu/+g7qH/fu3/wDjVHKu4cq7/n/kaVFZv9l3f/Qd1D/v3b//ABqj+y7v/oO6h/37t/8A41RyruHKu/5/5GlRVLRbiW70HT7m4bfLNbRyO2AMsVBJwPertJqzsS1Z2CiiikIKKKKACiiigAooooA5v4j/APJLPFf/AGBbz/0Q9Hjz/kXbX/sNaV/6cLej4j/8ks8V/wDYFvP/AEQ9Hjz/AJF21/7DWlf+nC3oA6SiiigAooooAKKKKACiiigAooooAKKKKACiiigAooooA5u+/wCSp6F/2BdS/wDR9jRY/wDJU9d/7Aum/wDo++ovv+Sp6F/2BdS/9H2NFj/yVPXf+wLpv/o++oA6SiiigAooooAKKKKACiiigAooqNriJbqO2ZsSyI0irg8qpUE5+rL+dAElFFFABRRRQAVzfij/AJGLwZ/2GpP/AE33ldJXN+KP+Ri8Gf8AYak/9N95QB0lc3Y/8lT13/sC6b/6Pvq6Subsf+Sp67/2BdN/9H31AHSUUUUAFFFFABRRRQAUUUUAFFFFABRRRQBm6D/yDpf+v26/9KJK0qzdB/5B0v8A1+3X/pRJWlQAUUUUAFFFFABRRRQAUUUUAFFFFAHP65rmq2ev6dpGh6ZZ31xeWtxdM15fNbJGsLQqQCsUhJJnHYfdNR/bvG//AEL3h/8A8H0//wAh0X3/ACVPQv8AsC6l/wCj7GukoAxPDet32rtqtvqthb2N3pl6LSRLa6a4jfMEUwYM0aHpMBjb1Fbdc34X/wCRi8Z/9hqP/wBN9nXSUAFFFFABRRRQAUUUUAFFFFABRRRQAUUUUAZsH/I033/Xlbf+hz1fmlSCCSaU7Y41LMcZwAMmqEH/ACNN9/15W3/oc9aVVLf7ip7/ACX5Gbb+IdJud3l30Q24z5h8v8t2M1N/a+m/9BC1/wC/6/41aaJGOSMH1HB/OsnGpB5A/wDaB/ePt8n7Nt27jtxu56Y61aUJbfn/AMA5pSqR319F/wAEfN4isYp/LjkSfChi8c8QXknjLOOeP1FM/wCEltP7n/kzB/8AHKP9P/6iv/krR/p//UV/8lavlh5feZc9Tz+4P+EltP7n/kzB/wDHKP8AhJbT+5/5Mwf/AByj/T/+or/5K0f6f/1Ff/JWjlh5feLmqd39wf8ACS2n9z/yZg/+OUf8JLaf3P8AyZg/+OUf6f8A9RX/AMlaP9P/AOor/wCStHLDy+8Oap3f3B/wktp/c/8AJmD/AOOUf8JLaf3P/JmD/wCOUf6f/wBRX/yVo/0//qK/+StHLDy+8Oap3f3FmHW9Nmgjk+226b1DbHlUMuR0Izwaf/a+m/8AQQtf+/6/41T/ANP/AOor/wCStWrBLl0l+2mfHmfuhKUDbdo67OOu6ocYrX9f+AaxnNu36f8ABG2+vabdXotLe6EkxJAVVbBxknnGO3rWhSKqoMKoUegFLWbt0No81veZm+HP+RW0r/ryh/8AQBWlWb4c/wCRW0r/AK8of/QBWlTn8TNZ/GwoooqSAooooAKKKKACiiigDm/iP/ySzxX/ANgW8/8ARD0ePP8AkXbX/sNaV/6cLej4j/8AJLPFf/YFvP8A0Q9Hjz/kXbX/ALDWlf8Apwt6AOkooooAKKKKACiiigAooooAKKKKACiiigAooooAKKKKAObvv+Sp6F/2BdS/9H2NFj/yVPXf+wLpv/o++ovv+Sp6F/2BdS/9H2NFj/yVPXf+wLpv/o++oA6SiiigAooooAKKKKACiiigArNn/wCRqsf+vK5/9DgrSrNn/wCRqsf+vK5/9DgoA0qKKKACiiigArm/FH/IxeDP+w1J/wCm+8rpK5vxR/yMXgz/ALDUn/pvvKAOkrm7H/kqeu/9gXTf/R99XSVzdj/yVPXf+wLpv/o++oA6SiiigAooooAKKKKACiiigAooooAKKKKAM3Qf+QdL/wBft1/6USVpVm6D/wAg6X/r9uv/AEokrSoAKKKKACiiigAooooAKKKKACiiigDm77/kqehf9gXUv/R9jXSVzd9/yVPQv+wLqX/o+xrpKAONtrnWNB8SeJGXwrqmpW+oahHdQXFnNaBGUWlvEQRJOjAhom7elXv+Eo1f/oRPEH/f/T//AJKrpKKAOb/4SjV/+hE8Qf8Af/T/AP5Ko/4SjV/+hE8Qf9/9P/8AkqukooA5v/hKNX/6ETxB/wB/9P8A/kqj/hKNX/6ETxB/3/0//wCSq6SigDm/+Eo1f/oRPEH/AH/0/wD+SqP+Eo1f/oRPEH/f/T//AJKrpKKAOb/4SjV/+hE8Qf8Af/T/AP5Ko/4SjV/+hE8Qf9/9P/8AkqukooA5v/hKNX/6ETxB/wB/9P8A/kqj/hKNX/6ETxB/3/0//wCSq6SigDm/+Eo1f/oRPEH/AH/0/wD+SqP+Eo1f/oRPEH/f/T//AJKrpKKAOQj1/V01m5uv+EI14iW3ij8vzbLK7WkOSTc7SDv6AkjByACpNv8A4SjV/wDoRPEH/f8A0/8A+Sq6Sim3cbd2c3/wlGr/APQieIP+/wDp/wD8lUf8JRq//QieIP8Av/p//wAlV0lFIRzf/CUav/0IniD/AL/6f/8AJVH/AAlGr/8AQieIP+/+n/8AyVXSUUAc3/wlGr/9CJ4g/wC/+n//ACVR/wAJRq//AEIniD/v/p//AMlV0lFAHN/8JRq//QieIP8Av/p//wAlUf8ACUav/wBCJ4g/7/6f/wDJVdJRQBzf/CUav/0IniD/AL/6f/8AJVH/AAlGr/8AQieIP+/+n/8AyVXSUUAc3/wlGr/9CJ4g/wC/+n//ACVR/wAJRq//AEIniD/v/p//AMlV0lFAHN/8JRq//QieIP8Av/p//wAlUf8ACUav/wBCJ4g/7/6f/wDJVdJRQByGla/q9lo1lanwRr0pgt44/MSWyUPtUDID3IYA46MAfUA8Vb/4SjV/+hE8Qf8Af/T/AP5KrpKKbd3ccnd3OWm8Z3Vm1u2p+ENcsbea6gtftEslkyRtNKsSFglwzY3OucA11Nc348/5F21/7DWlf+nC3rpKQgooooAKKKKACiiigDm/iP8A8ks8V/8AYFvP/RD1J42tL288NqumWcl9cQ6hY3X2eJ0V5Fhu4pXCl2Vc7UbGSKj+I/8AySzxX/2Bbz/0Q9dJQBzf/CUav/0IniD/AL/6f/8AJVH/AAlGr/8AQieIP+/+n/8AyVXSUUAc3/wlGr/9CJ4g/wC/+n//ACVR/wAJRq//AEIniD/v/p//AMlV0lFAHN/8JRq//QieIP8Av/p//wAlUf8ACUav/wBCJ4g/7/6f/wDJVdJRQBzf/CUav/0IniD/AL/6f/8AJVH/AAlGr/8AQieIP+/+n/8AyVXSUUAc3/wlGr/9CJ4g/wC/+n//ACVR/wAJRq//AEIniD/v/p//AMlV0lFAHN/8JRq//QieIP8Av/p//wAlUf8ACUav/wBCJ4g/7/6f/wDJVdJRQBzf/CUav/0IniD/AL/6f/8AJVH/AAlGr/8AQieIP+/+n/8AyVXSUUAc3/wlGr/9CJ4g/wC/+n//ACVR/wAJRq//AEIniD/v/p//AMlV0lFAHJWUmq6v4+0/Urnw7qGk2lnpl5A0l7LbNveWW2ZQoimc9IXySAOnrReyarpHj7UNStvDuoataXmmWcCyWUtsux4pblmDCWZD0mTBAI6+ldbRQBzf/CUav/0IniD/AL/6f/8AJVH/AAlGr/8AQieIP+/+n/8AyVXSUUAc3/wlGr/9CJ4g/wC/+n//ACVR/wAJRq//AEIniD/v/p//AMlV0lFAHN/8JRq//QieIP8Av/p//wAlUf8ACUav/wBCJ4g/7/6f/wDJVdJRQBzf/CUav/0IniD/AL/6f/8AJVH/AAlGr/8AQieIP+/+n/8AyVXSUUAc3/wlGr/9CJ4g/wC/+n//ACVXnOr3erS+NWJs9TtppZgyWDzx+dhiDsBWQxjdjj58dMkdvaq4vVNMWX4saVcY+U2zSN7lN2P5rQBof8JRq/8A0IniD/v/AKf/APJVH/CUav8A9CJ4g/7/AOn/APyVXSUUAc3/AMJRq/8A0IniD/v/AKf/APJVH/CUav8A9CJ4g/7/AOn/APyVXSUUAc3/AMJRq/8A0IniD/v/AKf/APJVUbm51jXvEnhtm8K6pptvp+oSXU9xeTWhRVNpcRAARzuxJaVe3rXZUUAFc3Y/8lT13/sC6b/6Pvq6Subsf+Sp67/2BdN/9H31AHSUUUUAFFFFABRRRQAUUUUAFFFFABRRRQBm6D/yDpf+v26/9KJK0qzdB/5B0v8A1+3X/pRJWlQAUUUUAFFFFABRRRQAUUUUAFFFFAHN69puo3PirS7zRL61s7yCyuot13aNcRtG725YbVkjO7MaYO7GNwwcgg+w+N/+hh8P/wDghn/+TK1Zv+Ris/8Ar1n/APQ4qv0Ac39h8b/9DD4f/wDBDP8A/JlH2Hxv/wBDD4f/APBDP/8AJldJRQBzf2Hxv/0MPh//AMEM/wD8mUfYfG//AEMPh/8A8EM//wAmV0lFAHN/YfG//Qw+H/8AwQz/APyZR9h8b/8AQw+H/wDwQz//ACZXSUUAc39h8b/9DD4f/wDBDP8A/JlH2Hxv/wBDD4f/APBDP/8AJldJRQBzf2Hxv/0MPh//AMEM/wD8mUfYfG//AEMPh/8A8EM//wAmV0lFAHN/YfG//Qw+H/8AwQz/APyZR9h8b/8AQw+H/wDwQz//ACZXSUUAc39h8b/9DD4f/wDBDP8A/JlH2Hxv/wBDD4f/APBDP/8AJldJRQBzf2Hxv/0MPh//AMEM/wD8mUfYfG//AEMPh/8A8EM//wAmV0lFAHN/YfG//Qw+H/8AwQz/APyZR9h8b/8AQw+H/wDwQz//ACZXSUUAc39h8b/9DD4f/wDBDP8A/JlH2Hxv/wBDD4f/APBDP/8AJldJRQBzf2Hxv/0MPh//AMEM/wD8mUfYfG//AEMPh/8A8EM//wAmV0lFAHN/YfG//Qw+H/8AwQz/APyZR9h8b/8AQw+H/wDwQz//ACZXSUUAc39h8b/9DD4f/wDBDP8A/JlH2Hxv/wBDD4f/APBDP/8AJldJRQBzf2Hxv/0MPh//AMEM/wD8mUfYfG//AEMPh/8A8EM//wAmV0lFAHN/YfG//Qw+H/8AwQz/APyZR9h8b/8AQw+H/wDwQz//ACZXSUUAc39h8b/9DD4f/wDBDP8A/JlXfCeqz694L0TV7xI0uNQ0+C6lWIEIrPGrEKCScZPGSa165v4cf8ks8Kf9gWz/APRCUAHjz/kXbX/sNaV/6cLeukrm/Hn/ACLtr/2GtK/9OFvXSUAFFFFABRRRQAUUUUAZviPSP+Eg8K6ro3n/AGf+0bKa087Zv8vzEKbtuRnGc4yKzfsPjf8A6GHw/wD+CGf/AOTK6SigDm/sPjf/AKGHw/8A+CGf/wCTKPsPjf8A6GHw/wD+CGf/AOTK6SigDm/sPjf/AKGHw/8A+CGf/wCTKPsPjf8A6GHw/wD+CGf/AOTK6SigDm/sPjf/AKGHw/8A+CGf/wCTKPsPjf8A6GHw/wD+CGf/AOTK6SigDm/sPjf/AKGHw/8A+CGf/wCTKPsPjf8A6GHw/wD+CGf/AOTK6SigDiZ7nxvD4qsdG/tvw+32uyubvzv7En+TyXgTbt+1858/Oc8be+eNL7D43/6GHw//AOCGf/5Movv+Sp6F/wBgXUv/AEfY10lAHE69c+N9E06K6/tvw/P5l7a2m3+xJ1x59xHDuz9rP3fM3Y74xxnNaX2Hxv8A9DD4f/8ABDP/APJlHjz/AJF21/7DWlf+nC3rpKAOb+w+N/8AoYfD/wD4IZ//AJMrN0G58b63p0t1/bfh+Dy726tNv9iTtnyLiSHdn7WPveXux2zjnGa7aub8B/8AIu3X/Ya1X/04XFAB9h8b/wDQw+H/APwQz/8AyZWbPc+N4fFVjo39t+H2+12Vzd+d/Yk/yeS8Cbdv2vnPn5znjb3zx21c3ff8lT0L/sC6l/6PsaAD7D43/wChh8P/APghn/8Akys3XrnxvomnRXX9t+H5/MvbW02/2JOuPPuI4d2ftZ+75m7HfGOM5rtq5vx5/wAi7a/9hrSv/Thb0AH2Hxv/ANDD4f8A/BDP/wDJlH2Hxv8A9DD4f/8ABDP/APJldJRQBxOg3PjfW9Oluv7b8PweXe3Vpt/sSds+RcSQ7s/ax97y92O2cc4zWl9h8b/9DD4f/wDBDP8A/JlHgP8A5F26/wCw1qv/AKcLiukoA4mC58bzeKr7Rv7b8Pr9ksra787+xJ/n855027ftfGPIznPO7tjnS+w+N/8AoYfD/wD4IZ//AJMosf8Akqeu/wDYF03/ANH31dJQBxOvXPjfRNOiuv7b8Pz+Ze2tpt/sSdcefcRw7s/az93zN2O+McZzWpHZeNBKhm1/QWjDDeq6HMpI7gH7WcH3wab48/5F21/7DWlf+nC3rpKAOX1bxHHoFzFb654s8P6dNMN0aXcXlFxnGQGnGeamjh1S+1Kzv7XUNMuYRbyqlzFalkGWj4GJuc7TyDxtPrXPfEPQtT1bW7GSw8C6D4liSLa8+qyKrQnd91cg8d+ldf4fje00O0trnT7HSpkTBsrJw0UXJ4U7V479BQtVcHo7EF5aeKn2fYNZ0eDGd/naRLLn0xi5XHf1qt9h8b/9DD4f/wDBDP8A/JldJRQBzf2Hxv8A9DD4f/8ABDP/APJlH2Hxv/0MPh//AMEM/wD8mV0lFAHN/YfG/wD0MPh//wAEM/8A8mVWkvfFWkeINCt9V1LR7601O9e0kS20uW3kTFtNMGDNcOOsIGNvQ11tc34o/wCRi8Gf9hqT/wBN95QB0Fws7QMLSSOKXja8sZdRz3AIzx71yNnFqv8AwsnWVW8sxcDSbAvIbRijL515tAXzMgghsnJzkcDBJ7Kubsf+Sp67/wBgXTf/AEffUAaXka5/0EdP/wDAB/8A49R5Guf9BHT/APwAf/49WlRQBm+Rrn/QR0//AMAH/wDj1Hka5/0EdP8A/AB//j1aVFAGb5Guf9BHT/8AwAf/AOPUeRrn/QR0/wD8AH/+PVpUUAZvka5/0EdP/wDAB/8A49R5Guf9BHT/APwAf/49WlRQBharc6zpWk3N9Jfae628Zfb9hcbiOgz53c1chj1dnjd9QsZIiQSEsnBZfY+accd8Gsf4jXRtvBdwo6zukef+BZP6LWv4cuvtnhnTp+7W6bs+oGD+oNAGlRRRQBm6D/yDpf8Ar9uv/SiStKs3Qf8AkHS/9ft1/wClElaVABRRRQAUUUUAFFFFABRRRQAUUUUAUJv+Ris/+vWf/wBDiq/VCb/kYrP/AK9Z/wD0OKr9ABRRRQAUUUUAFFMlnjgUGVtoPtTRcKw/dq8nptXg/ieKAJaKr/ag33fLH+/KB/LNH2nHUw49pf8A61AFiioluAwzsfaejABgfyzQl1DJJ5aOC/pigCWiiigAooooAKKKKACiiigAooooAKKhF3CzFVfcw7BSTQ1yFxlCuehdgoP65/SgCaiq/wBp94P+/v8A9alF0C20KHbsI3U/zxQBPRULXcUYzISnb5lI/wD11KjrIgZDkHoaAFooooAKKKKACub+HH/JLPCn/YFs/wD0QldJXN/Dj/klnhT/ALAtn/6ISgA8ef8AIu2v/Ya0r/04W9dJXN+PP+Rdtf8AsNaV/wCnC3rpKACiiigAooooAKKKKACiiigAooooAKKKKACiiigAooooA5u+/wCSp6F/2BdS/wDR9jXSVzd9/wAlT0L/ALAupf8Ao+xrpKAOb8ef8i7a/wDYa0r/ANOFvXSVzfjz/kXbX/sNaV/6cLeukoAK5vwH/wAi7df9hrVf/ThcV0lc34D/AORduv8AsNar/wCnC4oA6Subvv8Akqehf9gXUv8A0fY10lc3ff8AJU9C/wCwLqX/AKPsaAOkrm/Hn/Iu2v8A2GtK/wDThb10lc348/5F21/7DWlf+nC3oA6SiiigDm/Af/Iu3X/Ya1X/ANOFxXSVzfgP/kXbr/sNar/6cLiukoA5ux/5Knrv/YF03/0ffV0lc3Y/8lT13/sC6b/6Pvq6SgDm/Hn/ACLtr/2GtK/9OFvXSVzfjz/kXbX/ALDWlf8Apwt66SgDz3xjFeeJ/iFp/hD+1rvStMOnvf3RspfKmuyJAgiD9Qo6nHqKqt+z18N3JaXRZ5JWOWlfUJyxPqfn611Pi7wRpnjGG3N7Ld2V7aEtaahYTGG4tyRg7XHY9wciuc/4Vx4rUhIvijrghHGHtoWfH+9j9aS0Xn/X/DDe5Bpuly/D34j6Lomkare3eja3FOG0+9uDObV4kDCSNm+YKfukE4yRXptcl4W+Hmn+GtUl1e4v9Q1rWZo/KbUNTn8yRUznYg4CL7AV1tU9kT1YUUUUhhXN+KP+Ri8Gf9hqT/033ldJXN+KP+Ri8Gf9hqT/ANN95QB0lc3Y/wDJU9d/7Aum/wDo++rpK5ux/wCSp67/ANgXTf8A0ffUAdJRRRQAUUUUAFFFFABRRRQBxnxL0/UNQ0OH7FD5kFuz3Fwd6jYFU88nngt0rV8GWV/pvhe3stUg8maFnAXcGypYkHIJHerniP8A5FXVf+vKb/0A1pUAFFFFAGboP/IOl/6/br/0okrSrN0H/kHS/wDX7df+lElaVABRRRQAUUUUAFFFFABRRRQAUUUUAUJv+Ris/wDr1n/9Diq/VCb/AJGKz/69Z/8A0OKr9ABRRRQBE8+1mVBuKjLEnCr9T9Ki3Sy/dLEf7I2L+Z5P1FMXLtAv8BPmOMdSdxA/Aj9BVhi8kjJGwRVA3NjJz6D07evWgCIwiM+ZLIsR6AjlvpubOf0pdsTci3kl93HT/vo5qZIUjbcOXPV2OSf8+lEhIeLHdufyNACbpu0aAe7/AP1qN03/ADzj/wC+z/hUlFAFdlVmzJbHd3dccfQ9aaUjlYKsmSORHMufxwef1qck/aEGeNrcfiKV0WRdrqGHvQBX2TRdN+B/dbeD9QefwBpyXJ2kuAyrwzJ1X6qeR+tOZZIVLRsZFHJRuTj2P+OfwpkxxdQyocggg4/iBKj9M5/P1oAs9elFR24xCFHRSVHsASBUlABRRRQAU15FjXc549hnNOqCdtrqxGQiM4HuBj+poAa88m7aAEbrtxvb8hwPrnFJ5Mkn3+n/AE1O7P1UYFLEWhtWJw8hcgnpuYtgfh0H0qTyC/8Ar3L/AOyBhfy7/iTQBEohACK7y44Cp90e3y4H51IgKZ8m2EeeuSBn8s1MAAAAMAdAKZCSUOTn5m/maAE3Tf3E/wC+z/hSNvZcSwq6nsrZ/mBUtFAFU+Ug6SW/uPuj34yv50C3KjdAUIPIKnYT7kjg/lU8BJt4yTk7RknvxTTAu4tGTGx5JXofqOlAEQmkRsMepwBKNuf+BDI/DrU8cokJBVlZeqt2pqkvvinCsQOcDhgc9vwNQWpbZAXJZ1Hllj1IKhs/XgfrQBcooooAK5v4cf8AJLPCn/YFs/8A0QldJXN/Dj/klnhT/sC2f/ohKADx5/yLtr/2GtK/9OFvXSVzfjz/AJF21/7DWlf+nC3rpKACiiigAooooAKKKKACiiigArB8dXM9n8PfEFzaTSQTw6dO8csTFWRhGSCCOQR61vVFdWsN7ZzWt3GssE6NHJG3RlIwQfwNJ3toVBqMk2ctr99cwweEDDdSxm51KBJSkhHmqYZCQ3qCQDg+lcToNzNfaFp8+jT+K5/EbXg3yzvftZlBPiTcZf8ARynl5Hy89NvNd/p/gm3sruxludW1PUotNObC2vHjKWx2lAQVRWchSQC7Mfx5rW0TR7fQNGg02zeR4YN21pSCxyxY5wAOp9KvTmuu9/6+4z1sl5W/P/MZda7aWds00sd1tXH/AC7OuefVgB+tPi1i2mhSRI7ra6hh/okh4PuFx+VXmRXUq6hlPUEZBpQMDA6U7xtsTapfdfd/wSn/AGpb/wDPO6/8A5f/AImj+1Lf/nndf+Acv/xNXKKXu9h2n3X3f8E5O8vIm+JOjXAWbZHpN+hBgcOS01mRhMbiPlOSBgcAkbhnoP7Ut/8Anndf+Acv/wATWPff8lT0L/sC6l/6Psa6Sj3ewWn3X3f8E5PxpeRXOg2yRrMCNW01yZIHQYW+gY8sAM4BwOpOAASQK2V1uJZVjniuFZvukWsnP4bc1nePP+Rdtf8AsNaV/wCnC3roIoI4slB8x6setNOPYTVTo193/BJK5vwH/wAi7df9hrVf/ThcV0lc34D/AORduv8AsNar/wCnC4qDQ6Subvv+Sp6F/wBgXUv/AEfY10lc3ff8lT0L/sC6l/6PsaAOkrm/Hn/Iu2v/AGGtK/8AThb10lc348/5F21/7DWlf+nC3oA6SiiigDm/Af8AyLt1/wBhrVf/AE4XFdJXN+A/+Rduv+w1qv8A6cLiukoA5ux/5Knrv/YF03/0ffV0lc3Y/wDJU9d/7Aum/wDo++rpKAOb8ef8i7a/9hrSv/Thb10lc348/wCRdtf+w1pX/pwt66SgDzr4san448P6amt+ELq0/s62A+3wy2nmyRpnmZeRuAHVfbNQWdj8U9QsYLyy8ZeHZre4jWSKRNMYh1IyCPm9K9KkjSWNo5VV0cFWVhkMD1BFc74n1mx+HXgK51K001PsWmooSzt8RKFLhcLxgfez0oWiHZyaSKXhzTfiBbayknifX9JvtPCsGhtbJonLY4O4k967GmRSebCkmMb1DY9M0+m+xK7oKKKKQwrm/FH/ACMXgz/sNSf+m+8rpK5vxR/yMXgz/sNSf+m+8oA6Subsf+Sp67/2BdN/9H31dJXN2P8AyVPXf+wLpv8A6PvqAOkooooAKKKKACiiigAooooAzfEf/Iq6r/15Tf8AoBrSrN8R/wDIq6r/ANeU3/oBrSoAKKKKAM3Qf+QdL/1+3X/pRJWlWboP/IOl/wCv26/9KJK0qACiiigAooooAKKKKACiiigAooooAoTf8jFZ/wDXrP8A+hxVfqhN/wAjFZ/9es//AKHFV+gAooooApxZE8aMpUoFU+/DcirEf+sl/wB//wBlFQIzSXRc9BJsA9MBv8c1PD9xj3Ltn8yKAJKjk/1kX+//AOympKjk/wBZF/v/APspoAkooooAjk/1kR77iPwwf8KkqOT/AFkX+/8A+ympKACqbHbbRn+7AWGB3G01cqm4zaKFOD9nYdOnAoAsQhhF8w2ksTg9skmpKbE5khRyMFlBIHanUAFFFFABVe6yCh2kq37tiO24gZqxUF0xCxKv8Uqg+wzn+mPxoATrGq/3pT+jE/0qxVdf+Wf/AF1f/wBmqxQAVHB/qFPdhuP1PNSVHB/x7x/7g/lQBJRRRQBHB/x7Rf7g/lUlRwf8e8f+4P5VJQBGf+PlfdDn35FV7bLFFAPykMWxx9wDFWD/AMfKf7jfzFQWzETqv8LQKfoRnP8AMflQBbooooAK5v4cf8ks8Kf9gWz/APRCV0lc38OP+SWeFP8AsC2f/ohKADx5/wAi7a/9hrSv/Thb10lc348/5F21/wCw1pX/AKcLeukoAKKKKACiiigAooooAKKKKACiiigAooooAKKKKACiiigDm77/AJKnoX/YF1L/ANH2NdJXN33/ACVPQv8AsC6l/wCj7GukoA5vx5/yLtr/ANhrSv8A04W9dJXN+PP+Rdtf+w1pX/pwt66SgArm/Af/ACLt1/2GtV/9OFxXSVzfgP8A5F26/wCw1qv/AKcLigDpK5u+/wCSp6F/2BdS/wDR9jXSVzd9/wAlT0L/ALAupf8Ao+xoA6Sub8ef8i7a/wDYa0r/ANOFvXSVzfjz/kXbX/sNaV/6cLegDpKKKKAOb8B/8i7df9hrVf8A04XFdJXN+A/+Rduv+w1qv/pwuK6SgDm7H/kqeu/9gXTf/R99XSVzdj/yVPXf+wLpv/o++rpKAOb8ef8AIu2v/Ya0r/04W9dJXN+PP+Rdtf8AsNaV/wCnC3rpKAOV8VfEXRfB2pW1lq8d+8tym9Pstm8wxnHO0HBqXWdM074k+AZrF5by3sdSRfnMJhmUK4P3ZFyOV7ioPGPjWfw7dWml6Holxr+uXqPJDYwyLEBGuAzvI3Crkge5rl2+J/ifWrhPD3hvwstl4sUM17barKTb2MYC4kLp/rAxYBdvofShar+v60Hdxd1oepRIIoUjByFUKCfanVwvhjxZ4lh8SReGviBptja6jcwtNZ3mmyM1vdBPvqA3zKwBBweoruqb7krsFFFFIYVzfij/AJGLwZ/2GpP/AE33ldJXN+KP+Ri8Gf8AYak/9N95QB0lc3Y/8lT13/sC6b/6Pvq6Subsf+Sp67/2BdN/9H31AHSUUUUAFFFFABRRRQAUUUUAZviP/kVdV/68pv8A0A1pVm+I/wDkVdV/68pv/QDWlQAUUUUAZug/8g6X/r9uv/SiStKs3Qf+QdL/ANft1/6USVpUAFFFFABRRRQAUUUUAFFFFABRRRQBQm/5GKz/AOvWf/0OKr9UJv8AkYrP/r1n/wDQ4qv0AFFFFAFSH/WH/r4b/wBBNTw/6s/77f8AoRqCH/WH/r4b/wBBNTw/6s/77f8AoRoAkqOTmWIDrkn8MEf1FSVGf+PhP9xv5igCSiiigCOT/WRf7/8A7KakqOT/AFkX+/8A+ympKACqj/6t/wDcl/8AQqt1Ub/Vv/uS/wDoVAE8P+rP++3/AKEakqOH/Vn/AH2/9CNSUAFFFFABUFx/rY/8/wAS1PUFx/rY/wDP8S0AC/8ALP8A66v/AOzVPVePmRR2BkP47v8A65qxQAVHB/x7Rf7g/lUlRwf8e8f+4P5UASUUUUARw/6s/wC83/oRqSo4f9Wf99v/AEI1JQBGf+PlP9xv5ioIP+PiP/r3H86nk/1kR77iPwwf8Kgg/wCPmP8A69x/OgC3RRRQAVzfw4/5JZ4U/wCwLZ/+iErpK5v4cf8AJLPCn/YFs/8A0QlAB48/5F21/wCw1pX/AKcLeukrm/Hn/Iu2v/Ya0r/04W9dJQAUUUUAFFFFABRRRQAUUUUAFFFFABRRRQAUUUUAFFFFAHN33/JU9C/7Aupf+j7GukrE1vw22r6rZalbazqGk3dnDNAslksDb0laNmDCWNx1hTBAB6+tc/rOma9p2reH7WDxxrjJqWoPazF7ewJVRazzZXFtwd0SjnPBP1ABr+PP+Rdtf+w1pX/pwt66SuSv/A97qdskF9428QSxJNFOq+VYLh4pFkQ8W3Z0U46HGDkVZ/4RfV/+h78Qf9+NP/8AkWgDpK5vwH/yLt1/2GtV/wDThcUf8Ivq/wD0PfiD/vxp/wD8i1WsPA97pls8Fj428QRRPNLOy+VYNl5ZGkc823d3Y46DOBgUAdbXN33/ACVPQv8AsC6l/wCj7Gj/AIRfV/8Aoe/EH/fjT/8A5FqtJ4HvZdVg1J/G3iA3dvDJBFJ5Vh8qSMjOMfZsHJiTkjI28dTkA62ub8ef8i7a/wDYa0r/ANOFvR/wi+r/APQ9+IP+/Gn/APyLVa/8D3up2yQX3jbxBLEk0U6r5VguHikWRDxbdnRTjocYORQB1tFc3/wi+r/9D34g/wC/Gn//ACLR/wAIvq//AEPfiD/vxp//AMi0AHgP/kXbr/sNar/6cLiukrkrDwPe6ZbPBY+NvEEUTzSzsvlWDZeWRpHPNt3d2OOgzgYFWf8AhF9X/wCh78Qf9+NP/wDkWgAsf+Sp67/2BdN/9H31dJXJR+B72LVZ9STxt4gF3cQxwSyeVYfMkbOyDH2bAwZX5Ayd3PQYs/8ACL6v/wBD34g/78af/wDItAB48/5F21/7DWlf+nC3rpK8/wDFmg6jZaXY3Fz4s1jUIk1rS91tcxWYjfN/AOTHArcZzww5HccV30il4nRZGjZlIDqBlT6jIIz9QaAOF8YWHiHSvGVj4u8L6YmslLRrC908zCJ2iLhxJGx4yDnI7iuqi0LT4/EUuvrblNSntVtZZN55jViwXHTgk84zR/Zd3/0HdQ/792//AMarKuYJY/FlhatrV+ZpLWcq+yDKjdGcf6vGDtPb+Ee9C0Vv61/p/eD1d/60/wCGMaztvEXin4lW2qavo50fR/D7TpZ+bKGlvZXGzzMD7qBc4z1yPw9AqtZ2s1tv86/uLvdjHnLGNv02KvX3z0qzR0SDrcKKKKACub8Uf8jF4M/7DUn/AKb7yukrm/FH/IxeDP8AsNSf+m+8oA6Subsf+Sp67/2BdN/9H31dJXN2P/JU9d/7Aum/+j76gDpKKKKACiiigAooooAKKKKAM3xH/wAirqv/AF5Tf+gGtKs3xH/yKuq/9eU3/oBrSoAKKKKAM3Qf+QdL/wBft1/6USVpVm6D/wAg6X/r9uv/AEokrSoAKKKKACiiigAooooAKKKKACiiigChN/yMVn/16z/+hxVfqhN/yMVn/wBes/8A6HFV+gAooooAqQ/6w/8AXw3/AKCang/1Kn+98358/wBahiVllIYf8tyRjuCuamg/494/9wfyoAkqNuLhP91h+PH+FBnjDFQ24jqFBbH1x0ppkWR49ueJMHKkfwn1oAmooooAjk/1kX+//wCympKimYIY2Y4AYk/98ml+0Rjltyj1ZCB+ZFAElVH/ANW/+5L/AOhVbBDAEHIPII71Uf8A1b/7kv8A6FQBPD/qz/vt/wChGpKZCpWJQ/3urY9TyafQAUUUUAFQXH+tj/z/ABLU9QXIbMbLggOA3PYkf1AoAIv9av8A20/9CFT1BF/rV/7af+hCpXkSNcyMqj1JxQA6o4P+PeP/AHB/Kjz0yM7xk45Rh/SiD/j2i/3B/KgCSiiigCOH/Vn/AH2/9CNSVBFMqqAd2Wy+AhPBJx0qRJUkJCsNw6qeCPwoAST/AFkX+/8A+ymoLf8A4+I/+vcfzqeT/WRf7/8A7Kaht1Yzo38IgUfiT/8AWoAtUUUUAFc38OP+SWeFP+wLZ/8AohK6Sub+HH/JLPCn/YFs/wD0QlAB48/5F21/7DWlf+nC3rpK5vx5/wAi7a/9hrSv/Thb10lABRRRQAUUUUAFFFFABRRRQAUUUUAFFFFABRRRQAUUUUAFc34o/wCRi8Gf9hqT/wBN95XSVzfij/kYvBn/AGGpP/TfeUAdJRRXD3vh3SPEXxP1Vdb0qx1MW2j2DQpfWyTKhaa83YDA4ztXJHoPpQB3FFcxH8PPA0i8eDdABBwynS4Mg/8AfNP/AOFceCP+hN8P/wDgrg/+JoA6Siub/wCFceCP+hN8P/8Agrg/+Jo/4Vx4I/6E3w//AOCuD/4mgDpKK5v/AIVx4I/6E3w//wCCuD/4mj/hXHgj/oTfD/8A4K4P/iaAOkorm/8AhXHgj/oTfD//AIK4P/iaP+FceCP+hN8P/wDgrg/+JoA6Siub/wCFceCP+hN8P/8Agrg/+Jo/4Vx4I/6E3w//AOCuD/4mgDpKK5Zfh54KkkBh8IaCioc710yEEkeh2/rU3w6Zn+F3hVnJZm0a0JJOST5KUAJ48/5F21/7DWlf+nC3rpK5b4ixPP4Siiinktnk1bTFWaIKXjJv4AGXcCuR1GQR6g1L/wAIvq//AEPfiD/vxp//AMi0AdJXn2s6oY/jBpiAgLEiwEHuXDf/ABQ/Kt3/AIRfV/8Aoe/EH/fjT/8A5Frkr/wPrsni6OT+1knnkzPHdTMFlKxFFBbZGEDfMuMLjj8wD1Giub/4RfV/+h78Qf8AfjT/AP5Fo/4RfV/+h78Qf9+NP/8AkWgDpKK5v/hF9X/6HvxB/wB+NP8A/kWj/hF9X/6HvxB/340//wCRaAOkrm/FH/IxeDP+w1J/6b7yj/hF9X/6HvxB/wB+NP8A/kWsjU9GvtO8W+D5bzxLqmqo2rSqIbyO1VFP2C7O4eVCjZ4xyccnjpgA7uubsf8Akqeu/wDYF03/ANH31dJXN2P/ACVPXf8AsC6b/wCj76gDpKKKKACiiigAooooAKKKKAM3xH/yKuq/9eU3/oBrSrN8R/8AIq6r/wBeU3/oBrSoAKKKKAM3Qf8AkHS/9ft1/wClElaVZug/8g6X/r9uv/SiStKgAooooAKKKKACiiigAooooAKKKKAKE3/IxWf/AF6z/wDocVX6oTf8jFZ/9es//ocVX6ACiiigCv0mJ7CUZ/FMfzNNkDiFomj3AMCvBKsuc44B7cUXEnlQzyY3bZFOB3+7SJZmZd98xd2GdgOFT2H+NADVumAwgRQOAiYb+TD+VJ5/lkNLwS2/L7hzjH92rX2eHvEp9yMmnJGiZ2Iq564GKAKv29f9j/vpv/iaX7euf4P++m/+Jq3RQBSe5WcbPlJ5A2ls9Mf3fel+0yLwxx7umM/iSM/lVtlDLhgCPQimfZ4f+eMf/fIoArxSHzDIIAu4HiM53nPXI49eppzqUjIfG7ypCcdMkg057GF2LLujfs6MQRTbcTO7Jc4YxgoXHAcHBHHY460AWqKZCSYIyTklRk/hT6ACiiigAqOb/Vj/AH1/9CFSVHN/qx/vr/6EKAIwGAEiLu2u4K+oLdvfgVEZTFIT5aBmJ/eNwcemDj+dJ+9muHtkYwxxsWd1+82TkAenuanSzgjztjyD1DEnP50AQ+fJJjIJUEHKocHHuN1C3qIoUbMKAB8zf/E1Z+zw/wDPKP8A75FSUAVPt6esf/fTf/E0fb1/6Z/99N/8TVuigCisrDDxBsbQvyqWGBn2H86SWZpkKbI5WIO35gNvvwSfyq40MTNlo0JPUlRTXtYHUgxqAeu3jP5UAClpZg20rGvTcMFj9Pzptt2/65J/WoJYZrXm1dmjb5TGzfdzwCD25/nVpAFnYAYARQPzNAElFFFABXN/Dj/klnhT/sC2f/ohK6Sub+HH/JLPCn/YFs//AEQlAB48/wCRdtf+w1pX/pwt66Sub8ef8i7a/wDYa0r/ANOFvXSUAFFFFABRRRQAUUUUAFFFFABRRRQAUUUUAFFFFABRRRQAVzfij/kYvBn/AGGpP/TfeV0lc34o/wCRi8Gf9hqT/wBN95QB0lc3Y/8AJU9d/wCwLpv/AKPvq6Subsf+Sp67/wBgXTf/AEffUAdBJGS2+PAkAxz0Yeh/zxTo5BIvGQQcMp6g06o5IyW3x4EgGOejD0P+eKAJKKbHIJF4yCDhlPUGnUAFFFFABRRRQAVCSZyVU4jHDMP4vYf40EmclVOIxwzD+L2H+NTAAAADAHQCgAAAAAGAOgFc38OP+SWeFP8AsC2f/ohK6Sub+HH/ACSzwp/2BbP/ANEJQAePP+Rdtf8AsNaV/wCnC3rpK5b4iyvB4SiligkuXj1bTGWGIqHkIv4CFXcQuT0GSB6kVL/wlGr/APQieIP+/wDp/wD8lUAdJWbP/wAjVY/9eVz/AOhwVm/8JRq//QieIP8Av/p//wAlVRl8R6odftJT4L1xXW1nUQmax3uC0RLD/SduBtAOSD8wwDzgA7Kiub/4SjV/+hE8Qf8Af/T/AP5Ko/4SjV/+hE8Qf9/9P/8AkqgDpKK5v/hKNX/6ETxB/wB/9P8A/kqj/hKNX/6ETxB/3/0//wCSqAOkrm/FH/IxeDP+w1J/6b7yj/hKNX/6ETxB/wB/9P8A/kqsjU9ZvtR8W+D4rzw1qmlIurSsJryS1ZGP2C7G0eVM7Z5zyMcHnpkA7uubsf8Akqeu/wDYF03/ANH31dJXN2P/ACVPXf8AsC6b/wCj76gDpKKKKACiiigAooooAKr39/aaXYy3upXUNpawjdJPO4REHqSeBVisfxbaz3vhS/t7PS7XV5pI8JY3jARTcj5WJ7UnohrVleTXNI8VeHtSg8NatYapLJayoq2l0knzFSADg8ckda6CuD+HeiajpUk7ah4H8P8AhoOmPM0uVWkkOfusAg47/eP0rvKpkoKKKKQzN0H/AJB0v/X7df8ApRJWlWboP/IOl/6/br/0okrSoAKKKKACiiigAooooAKKKKACiiigChN/yMVn/wBes/8A6HFV+qE3/IxWf/XrP/6HFV+gAooooAy2LmW4jkYsSclM9cJngeg+X+tagORkciqcu4vvXPyuZAB32gKR/P8ASp7Yjydg6Idox6dv0xQBLRRRQAUUUUAFFFFABVdwztMUzxtXAOCccnn6HFTkhVJY4AGST2qnFuM0bHcME5HTlgWIP0+WgA065ZrWJLhdr7QvXPOOh98fgeoq7VQ23nWsextj+WBuxnjt+R5Hofxq3QAUUUUAFZt5dO8sKwgiPJJYHB+6cN/u/qcegNXp4zNCyKwUnHUZBGehHv0pnliJogMsS5LMerHaeTQA2zIPmEc+YfNB/wBls4/lVmqVuSjR7iTx1J7MM5P/AAIEfjV2gAooooAKKKKACiiigCOf/Vgdy64/MVUeSeHVGIQtE6gctx7Aehzn0H44qa5c+YqofmUZHsx+UfhyT+FJDGoAiPzIUZCG5yFOB+hoAsI6yIGQ5B9qdUUMLRM5L7g2MZHP4nv2/KpaACub+HH/ACSzwp/2BbP/ANEJXSVzfw4/5JZ4U/7Atn/6ISgA8ef8i7a/9hrSv/Thb10lc348/wCRdtf+w1pX/pwt66SgAooooAKKKKACiiigAooooAKKKKACiiigAooooAKKKKACub8Uf8jF4M/7DUn/AKb7yukrm/FH/IxeDP8AsNSf+m+8oA6Subsf+Sp67/2BdN/9H31dJXN2P/JU9d/7Aum/+j76gDpKKKKAI5IyW3x4EgGOejD0P+eKdHIJF4yCDhlPUGnVXvWNvbS3SDLwxlsZwHAGcH/HtTSbdkNJt2RYorOfVgthaXIiybiWKMoWwULke3OM/jWVp/im71WVo7CHR3lDOPIbVSJgFYjLIIjj/wCvW0cPVnFyS0XmjphhK04uUVot9V/mdNUJJnJVTiMcMw/i9h/jWZo2o3+swPLdWcFrbh3jBiuWkZyrlSOUXAyvXn8K2QAAABgDoBWc4SpycZboxqU5UpuEt18/yAAAAAYA6AUUUVBmFc38OP8AklnhT/sC2f8A6ISukrm/hx/ySzwp/wBgWz/9EJQAePP+Rdtf+w1pX/pwt66SuW+ItzBZ+Eorq8mjgt4dW0ySWWVwqRqL+AlmJ4AAGSTUv/Cx/BH/AEOXh/8A8GkH/wAVQB0lFc3/AMLH8Ef9Dl4f/wDBpB/8VR/wsfwR/wBDl4f/APBpB/8AFUAdJRXN/wDCx/BH/Q5eH/8AwaQf/FUf8LH8Ef8AQ5eH/wDwaQf/ABVAHSUVzf8AwsfwR/0OXh//AMGkH/xVH/Cx/BH/AEOXh/8A8GkH/wAVQB0lc34o/wCRi8Gf9hqT/wBN95R/wsfwR/0OXh//AMGkH/xVZGp+LPDmveLfB9roev6XqVwmrSyNFZ3sczqosLsFiFJOMkDPuKAO7rm7H/kqeu/9gXTf/R99XSVzdj/yVPXf+wLpv/o++oA6SiiigAooooAKKKKACqGuahc6VotzfWWnTanNAm9bSBgry88hc8Zxk474q/RSe2g1ueVaN8Z9T8Q2JvNF+HmuXduJGjZ45YvldTgqQTkEehrQ/wCFleJv+iYeIP8Av7D/APFV1OleFLLRvEuq6xp8s0R1bY9zagjyfMUY8wDGQxHB5wcVe0zW9O1iS8TTbpbhrG4a1uQoI8uVcZU5HXkVQizazPcWcM0sLQPJGrtE/VCRkqfcdKloopMEZug/8g6X/r9uv/SiStKs3Qf+QdL/ANft1/6USVpUAFFFFABRRRQAUUUUAFFFFABRRRQBQm/5GKz/AOvWf/0OKr9UJv8AkYrP/r1n/wDQ4qv0AFFFFAEEX+tX/tp/6EKZb/u7h4u2OPoOn6MB+FPi/wBav/bT/wBCFK8aPcjeiuGTowzjB/8AsjQA9po1baXG7+6OT+VJ52fuRyN/wHH88U9VVF2ooUegGKWgCPzG/wCeL/mv+NHmN/zxf81/xqSigCPzSPvRSAevB/QHNH2iIfebZ/vgrn86kooAhunVbc7j8rcH3HU/pmkVCiwB/vFyzfUgk/zolgiG3ZGiszjkKPXJ/QU+T/WRf7//ALKaACD/AI94/wDcH8qkqOD/AI9ov9wfyqhP4hsLe9mtG+1STQECUQWU0oTIyMlEI6HPWrjCc3aKuXCnOo7QTfoadFUzq1iNJbUxcKbNFLtKoJwB14HOcjGMZzxTZNZsItGXVXnJsnVWWRY2YkMQF+UDPJI4xmn7Of8AK97fPt6lexqPTle9tuvb18i9Ucn+si/3/wD2U1Qg8QafPdxW2bmGWYkRi5s5YA5AzgF1AJx260+TV7D7NJdtcqlvazOk0jgqEZAQw59/TrQ6VRaOL+4boVYuzi/uJJEP2SF0+8FCj8cY/wDHgv61Z81PKEhYBCAQScVnLq1lJbrbiZllayNyFaNlIjHG7kevbrT49T0v+yP7YjeMWnlmQzKnIXvwBn8KPZz/AJWL2NT+V/cXfPjPTcw9VQkH8QKPNb/nhJ+a/wCNV73VrPT3SO5kYyuCyQxRtLIwHUhEBYjnrin2Oo2uoxs9nLv2NtdSpVkOM4ZSAVOCOCKXs58vNbTuL2VRR5+V279CXzG/54v+a/40eY//ADwk/Nf8akoqDMj84D7yyA+mwn+VOSWOTPlurY64OcU6mvFHJjzEV8dNwzigCvH+9vGbqFJI9v4R/Jvzp8X+tX/tp/6EKdbqFVyoCgueAOBjj+lNi/1q/wDbT/0IUAT0UUUAFc38OP8AklnhT/sC2f8A6ISukrm/hx/ySzwp/wBgWz/9EJQAePP+Rdtf+w1pX/pwt66Sub8ef8i7a/8AYa0r/wBOFvXSUAFFFFABRRRQAUUUUAFFFFABRRRQAUUUUAFFFFABRRRQAVzfij/kYvBn/Yak/wDTfeV0lc34o/5GLwZ/2GpP/TfeUAdJXN2P/JU9d/7Aum/+j76ukrm7H/kqeu/9gXTf/R99QB0lFFFABUVzD9ptJoN23zEZN2M4yMZpl/eJp+nz3cqu6QoWKoAWb2Gccms+fxCtpGpvdOvbZ3V2SNhGzNtKAD5XIyS4A59c4rWnTnKzijenSqTs4IjTRdQa3t47u/tZfsrxNH5Nq0ZYIc4YmRs5x1xxz9KsaRa/Z9NSzSQukTNvfG0kli23GT69e/aqTeKIJZkgezvImMvkyx7ULI26NQCVYjH71TkE8Z78Vo319b6fMnnN5GUJSRuEfaMlPrjJHHrjPIraoq7XLJb69P0N6qxMlySW+uiWtu1v66kml2A0yx+zCTzB5skmdu377s+Me27H4VcrPuNXW201LprW4eSR0jFsoUSb2IAXlgo6564xUMviBYMpNp94lxsjYW+IyzF3ZVUEOVz8pPXABHNZ+zqVG5b3fl/X6GXsqtVue7b8v6/Q1qKyYPEME1xDB9luo5ZHKMrqv7pgSCGwxHbtkcitas505QdpIyqU503aSsFc38OP+SWeFP8AsC2f/ohK6Sub+HH/ACSzwp/2BbP/ANEJUGYePP8AkXbX/sNaV/6cLeukrm/Hn/Iu2v8A2GtK/wDThb10lABRRRQAUUUUAFFFFABXN+KP+Ri8Gf8AYak/9N95XSVzfij/AJGLwZ/2GpP/AE33lAHSVzdj/wAlT13/ALAum/8Ao++rpK5ux/5Knrv/AGBdN/8AR99QB0lFFFABRRRQAUUUUAFMnnitoWmuJUiiX7zyMFUfUmn1Q1zT9M1TRLmy16OKTT5k2zpM+1Cue5yKT2GtyxbXtreLus7mG4X1ikDD9K5nwN4ZvvDl34mk1BoSuqazNfQeUxOI2CgbsgYPB45pnh3Rfh/4Smkl8OR6Np8si7HkinTcy5zgsTnGam074i+H9S8Uavokd0kUulCIyTyyxiKbzF3DYd3OO/Aqlvp2/Vf5IWttf66fqdVRSI6yIrxsGVhlWU5BHrS0gM3Qf+QdL/1+3X/pRJWlWboP/IOl/wCv26/9KJK0qACiiigAooooAKKKKACiiigAooooAoTf8jFZ/wDXrP8A+hxVfqhN/wAjFZ/9es//AKHFV+gAooooAgi/1q/9tP8A0IU8/wDHyn+438xTIv8AWr/20/8AQhTz/wAfKf7jfzFAElFFFABRRRQAUUUUARyf6yL/AH//AGU0Sf6yL/f/APZTRJ/rIv8Af/8AZTRJ/rIv9/8A9lNABB/x7x/7g/lXNWkWpyeKtf8A7Ou7W3XzYdwntWlJPkr0IkXH610sH/HtF/uD+VKkEUcskkcSJJKQZHVQC5AwMnvxxW1Kr7NS81b8U/0OijW9kp2W6t0fVPr6HJananT003RLSG4v3munvrtYiqs6q+9j8zKoBkZRjPTPWs24nlh8MaxpDW8lnJbXcMtvFcFWKxSTqy/cYggNuGAegHSu/wDIi+0ef5Sedt2eZtG7bnOM9cZ7VHNZWtw5e4toZWKhSXjDEgHcBz2B5+tddPGpWUlfVP53vfttod1PMFHlU43s1K/96979ttNjm7w6gPEml2viC6tms2l8y2ktbcxb51Bwj7nbAxkjHUjHscRYrm2mutXvCt3pVnq9wz2Sx5KjeczH+8V6gY4APevQZ7aC6QJdQxzKrBwsiBgGHIPPcetM+zwwlVhhjRZJWdwqgBmIOSfUmiGMUY2t67fh2b7ihmCjBLl8nslu727N33/4Y5e5kSXxN5kTB0bw9IVYHII3isK9DeHvBPyhjpurWCcAE+RclB+Sv+jfWvQbTTrKK3iMVnboRD5Q2xKMIeSvToTzinJZ202lxWs1vFJb+Wq+S6ApgAYG3p2qqeMjBxVrpWv8v1LpZhCm4rlvFWv52/X+tjKtCIvGWqrOypc3EERtWcfejUHIHrhySQP7w9qTQ7y4l8Rara3LWM7QJCWubS3MZZjuyjZdslQB343Vs3djaX8Hk31rDcxZzsmjDr+Rp9vbQWkCw2kMcESjCxxIFUfQCuaVaLg9NWkvutr+GxySxEJQaa1aS9LW1vv02+ZJRRRXKcQUUUUARw/6s/77f+hGmRf61f8Atp/6EKfD/qz/AL7f+hGmRf61f+2n/oQoAnooooAK5v4cf8ks8Kf9gWz/APRCV0lc38OP+SWeFP8AsC2f/ohKADx5/wAi7a/9hrSv/Thb10lc348/5F21/wCw1pX/AKcLeukoAKKKKACiiigAooooAKKKKACiiigAooooAKKKKACiiigArm/FH/IxeDP+w1J/6b7yukrm/FH/ACMXgz/sNSf+m+8oA6Subsf+Sp67/wBgXTf/AEffV0lc3Y/8lT13/sC6b/6PvqAOkooooArajbG70+WAQ28+8D91dJujfnOCP68464PSsGPQrl9HvLaCK0tBJOk0VtAx8iNkKkKDtHBZMkhR1PBOSehJM5KqcRjhmH8XsP8AGpgAAABgDoBW0K06atHvc6KeInSjyx73/r7jN0eyubZ724vlhjmu5hJ5UDl1QBFQDcQufu56DrRqemPqkqRzSeXbRjzE2H5/NB+VvTC9QOcnr050qKXtZc/OtyfbT5/aLR/l0/IyNQ064v8AS4VubXT7y5QgyxXKkwy4z6g7euQcHHI75qtDpV0mhQw2wtxc29156W7MVij+cnygQCQApwDjHTAxxXQVHJGS2+PAkAxz0Yeh/wA8VSrySstr3LjiZxjyra9yrpNpPa20pvPLE88zzOsTFlXJ4AJAJ4xzgVepscgkXjIIOGU9QadWUpOUuZmM5OcnJhXN/Dj/AJJZ4U/7Atn/AOiErpK5v4cf8ks8Kf8AYFs//RCVJBF8RYnn8JRRRTyWzyatpirNEFLxk38ADLuBXI6jII9Qal/4RfV/+h78Qf8AfjT/AP5Fo8ef8i7a/wDYa0r/ANOFvXSUAc3/AMIvq/8A0PfiD/vxp/8A8i0f8Ivq/wD0PfiD/vxp/wD8i10lFAHN/wDCL6v/AND34g/78af/APItH/CL6v8A9D34g/78af8A/ItdJRQBzf8Awi+r/wDQ9+IP+/Gn/wDyLR/wi+r/APQ9+IP+/Gn/APyLXSUUAc3/AMIvq/8A0PfiD/vxp/8A8i1kano19p3i3wfLeeJdU1VG1aVRDeR2qop+wXZ3DyoUbPGOTjk8dMd3XN+KP+Ri8Gf9hqT/ANN95QB0lc3Y/wDJU9d/7Aum/wDo++rpK5ux/wCSp67/ANgXTf8A0ffUAdJRRRQAUUUUAFFFFABVTVNMs9a0q503U4FuLS6jMc0TdGU9RVuqeq6tY6Hpc2o6vdR2lnAAZZpD8qAnHP4kUna2o1e+h4tP8KtA+Ht1LNqfha38R+GHcubkQl7zTweu8D/Wxj1A3AdjVfwF4J8A+Jfij4yjtdI03UNHgisnsQg3RoHjJYrz3I5r0j/hcXw9P/M2ab/38P8AhWVpPjr4Q6DfXl5o2s6LYz3zBrl4Dt80jJBIAx3P51UXbfsD2dj0a3gitbaK3t0EcUSBEQdFUDAH5VJUdvPFdW0VxbuJIpUDo46MpGQfyqSh3vqSrW0M3Qf+QdL/ANft1/6USVpVm6D/AMg6X/r9uv8A0okrSpDCiiigAooooAKKKKACiiigAooooAoTf8jFZ/8AXrP/AOhxVfqhN/yMVn/16z/+hxVfoAKKKKAKBmkWdQnlpzJzK2N3zDpinx3DPdxq2w8MMqw9j657frUsX+tX/tp/6EKfJ/rIv9//ANlNAElFFFABRRRQAUUUUAV7uUwiJgAfnxywH8J7moTcSmaHmFwXOEVvmPyn3xVqT/WRf7//ALKaJP8AWRf7/wD7KaAOf0+NrXxPJLdXMkm7TVdi/CoN54AHAwPzrFs9ftNV8caVqH9q25jnjnjhtBOv7ofLt3DOQ7kng84wMZBrsrexjF4l/ubzTbLDjI27Qc/nzSz6dFPqlrfOziW1WRUAI2kPjOeP9kV6EMRTTbktXG34NdvQ9Sni6SbclduNr9tGtrd7djnLfQLRNbtNHvYlvLO2spZkjmTKF3l5YqcgkA4Hpk1HpGiDWdNSae5cNbNc2aEjcSi3IK857CMD8a6HUNHS+u4buK7uLK6hRo1mtymSjYypDqwIyAemRirNhYw6bYx2tsG8tM8scliTkknuSSTTli5cl1L3v+Hv99ypY6Xs04y97T5fFfy1uQa1p9rqekT2983lxbd4lBwYmXkOD2IIzXMeF76fXL8X2qP5l5ZgQw24UoAjJnz8Nj7+PwAx611OqaXDq9oLW6eQQFw0kaEASgc7W4+6e4GM/So7jSrZ9Zs9RTdFcQq0WYyAHQgnaw7gHkelZ060I0XTe728v+H2ZjRrwhh5U29Xe3l/+1s/lvqjN1oz3HhqcC7SOP7M5YQNhnGzgbiePw5NV77W4LPRNK01tQh0+a9tVJuJZFQRRhRuYEnG7nA9znoDXRPbrd6W1tIWCTQ+WxXqAVxxTrKIQ6fbxLkqkSqCeuAMVnTqxjFKSvZ/10M6VeEIxU1ezbtt09H1OQ8PxQXPg3SdUtrlZptJt5iAhD5coRg4PXkHHvSaVbJE2jz3tmbWW/j8v7VHMGkunaIsROu32JGGOCB06V1mm6bDpelQ6fAXeGFNgMhBJHvgCq1roMFtcQObi4mitf8Aj1glKlIONvy4UMeCR8xOM11yxcZOfZt29Hf9XfU7ZY6EpVOzbt3s76aebvr+dhND0NNEgMccxlBihjyVx/q0CZ698ZrVoorzpzlUlzSep5VSpOrJzm7thRRRUGZRjunIcI0K4dsF3HPzH0NOtJGd13AH/WfOhyp+btViD/j3j/3B/KmRf61f+2n/AKEKAJ6KKKACub+HH/JLPCn/AGBbP/0QldJXN/Dj/klnhT/sC2f/AKISgA8ef8i7a/8AYa0r/wBOFvXSVzfjz/kXbX/sNaV/6cLeukoAKKKKACiiigAooooAKKKKACiiigAooooAKKKKACiiigArm/FH/IxeDP8AsNSf+m+8rpK5vxR/yMXgz/sNSf8ApvvKAOkrm7H/AJKnrv8A2BdN/wDR99XSVzdj/wAlT13/ALAum/8Ao++oA6SoSTOSqnEY4Zh/F7D/ABoJM5KqcRjhmH8XsP8AGpgAAABgDoBQAAAAADAHQCiiigAooooAKKKKAI5IyW3x4EgGOejD0P8AninRyCReMgg4ZT1Bp1RyRktvjwJAMc9GHof88UASVzfw4/5JZ4U/7Atn/wCiEroo5BIvGQQcMp6g1zvw4/5JZ4U/7Atn/wCiEoAi+IsrweEopYoJLl49W0xlhiKh5CL+AhV3ELk9BkgepFS/8JRq/wD0IniD/v8A6f8A/JVHjz/kXbX/ALDWlf8Apwt66SgDm/8AhKNX/wChE8Qf9/8AT/8A5Ko/4SjV/wDoRPEH/f8A0/8A+Sq6SigDm/8AhKNX/wChE8Qf9/8AT/8A5Ko/4SjV/wDoRPEH/f8A0/8A+Sq6SigDm/8AhKNX/wChE8Qf9/8AT/8A5Ko/4SjV/wDoRPEH/f8A0/8A+Sq6SigDm/8AhKNX/wChE8Qf9/8AT/8A5KrI1PWb7UfFvg+K88NappSLq0rCa8ktWRj9guxtHlTO2ec8jHB56Z7uub8Uf8jF4M/7DUn/AKb7ygDpK5ux/wCSp67/ANgXTf8A0ffV0lc3Y/8AJU9d/wCwLpv/AKPvqAOkooooAKKKKACiiigApk0MVxA8NxGssUilXRxkMD1BHen0UAef+GvAVp4LvNbSa106XwyT9rs1ki3zWhwTLHypynGRzkcjFdh/wj+jf9Aix/8AAZP8Kb4j/wCRV1X/AK8pv/QDWlQAiIsaKkahVUYVVGAB6UtFFAGboP8AyDpf+v26/wDSiStKs3Qf+QdL/wBft1/6USVpUAFFFFABRRRQAUUUUAFFFFABRRRQBQm/5GKz/wCvWf8A9Diq/VCb/kYrP/r1n/8AQ4qv0AFFFFAEEX+tX/tp/wChCnyf6yL/AHif0NRxH96v/bT/ANCFSdboY/hQ5/E8f+gmgCSiiigAooooAKKKKAI5P9ZF/v8A/spok/1kX+//AOymibjY/wDdccfXj+tEn+si/wB//wBlNABB/wAe0X+4P5VJUcH/AB7x/wC4P5VJQAUUUUAFRyf6yL/f/wDZTUlRyf6yL/f/APZTQAQf8e8f+4P5UQf8e0X+4P5U1H8uxV+oWMH68VJGnlxImc7VAzQA6iiigAooooAKKKKAI4P+PdB3AwfqODTIv9av/bT/ANCFPg4Dr3Vzn8ef5GmRf61f+2n/AKEKAJ6KKKACub+HH/JLPCn/AGBbP/0QldJXN/Dj/klnhT/sC2f/AKISgA8ef8i7a/8AYa0r/wBOFvXSVzfjz/kXbX/sNaV/6cLeukoAKKKKACiiigAooooAKKKKACiiigAooooAKKKKACiiigArm/FH/IxeDP8AsNSf+m+8rpK5vxR/yMXgz/sNSf8ApvvKAOkrkNR/tXTPHd7qNroGoaraXum2luWspbZSjxS3LEHzZkPImXkA119FAHNDxPqwAA8B+IAB0An0/wD+SqX/AISjV/8AoRPEH/f/AE//AOSq6SigDm/+Eo1f/oRPEH/f/T//AJKo/wCEo1f/AKETxB/3/wBP/wDkqukooA5v/hKNX/6ETxB/3/0//wCSqP8AhKNX/wChE8Qf9/8AT/8A5KrpKKAOb/4SjV/+hE8Qf9/9P/8Akqj/AISjV/8AoRPEH/f/AE//AOSq6SigDm/+Eo1f/oRPEH/f/T//AJKo/wCEo1f/AKETxB/3/wBP/wDkqukooA5eTxJrBbfH4F18SAY5n0/DD0P+lf8A6qveDdOuNH8CaDpl8my5stNt7eZcg7XSJVYZGQeQelbVFAHLfEW5gs/CUV1eTRwW8OraZJLLK4VI1F/ASzE8AADJJqX/AIWP4I/6HLw//wCDSD/4qjx5/wAi7a/9hrSv/Thb10lAHN/8LH8Ef9Dl4f8A/BpB/wDFUf8ACx/BH/Q5eH//AAaQf/FV0lFAHN/8LH8Ef9Dl4f8A/BpB/wDFUf8ACx/BH/Q5eH//AAaQf/FV0lFAHN/8LH8Ef9Dl4f8A/BpB/wDFUf8ACx/BH/Q5eH//AAaQf/FV0lFAHN/8LH8Ef9Dl4f8A/BpB/wDFVkan4s8Oa94t8H2uh6/pepXCatLI0VnexzOqiwuwWIUk4yQM+4ru65vxR/yMXgz/ALDUn/pvvKAOkrm7H/kqeu/9gXTf/R99XSVzdj/yVPXf+wLpv/o++oA6SiiigAooooAKKKKACiiigDN8R/8AIq6r/wBeU3/oBrSrN8R/8irqv/XlN/6Aa0qACiiigDN0H/kHS/8AX7df+lElaVZug/8AIOl/6/br/wBKJK0qACiiigAooooAKKKKACiiigAooooAoTf8jFZ/9es//ocVX6oTf8jFZ/8AXrP/AOhxVfoAKKKKAM+3kkE0UjbmSQSkgDOz5hjj6daljUzzSFwwTg7emfQH8BnH+1RacGNf7qHH47T/AFqeDlXf++5P5cD9AKAD7PF/CgU+qfL/ACo8kD7jyKfXdn+eakooAj8tv+ez/kv+FHlt/wA9pPyX/CpKKAI/KJ+9LIw9MgfyFH2eM8MC49HYsPyNSUUAVriBVhZo/kGMOF6Fe/Hrimyu8iwjDo4cbyFwB2OD+NWmUOpVhkEYIqFWLR2+85bdhvqAc/rQAWTM1lFv5YLtJ9ccZ/rU9V7P/VHH+z/6CtWKACiiigAqrd72khjjJUks2R14U4H5n9KtVXfm8T2xj8moAhEztYwgRkPhSQQcAjoM98nH4VZW2jC/vFEjd2cZJpi/NHbJ7BiPYD/HFWKAI/IQdC4+kjf40eUw6TSY/D/CpKKAI/Lb/ns/5L/hR5b/APPeT8l/wqSigCPyFPVpCfXeR/Kj7PDz+7XJ/ixz+fWpKKAKsbNDcOH3MuAMgEn1BOPqRn/ZqK3Li5idi2JDKNp/h+bI/lVs/LdD/bTBP0PH8z+VV+txEQM7HfP4kj+h/KgC5RRRQAVzfw4/5JZ4U/7Atn/6ISukrm/hx/ySzwp/2BbP/wBEJQAePP8AkXbX/sNaV/6cLeukrm/Hn/Iu2v8A2GtK/wDThb10lABRRRQAUUUUAFFFFABRRRQAUUUUAFFFFABRRRQAUUUUAFZGv6ANeWwZdRvNNuNPuvtUFxZiIurGKSIgiRHUgrK3b0rXooA4TxLpmvaNpMN1a+ONcd5NQsrUiS3sCNs11FCx4thyFkJHvjr0rX/4RfV/+h78Qf8AfjT/AP5Fo8ef8i7a/wDYa0r/ANOFvXSUAc3/AMIvq/8A0PfiD/vxp/8A8i1keGtM17WdJmurrxxriPHqF7agR29gBthupYVPNseSsYJ989Old3XN+A/+Rduv+w1qv/pwuKAD/hF9X/6HvxB/340//wCRayLnTNeh8aabpC+ONcNvdafd3Tsbew3hopLdVAP2bGMTNnjsOnOe7rm77/kqehf9gXUv/R9jQAf8Ivq//Q9+IP8Avxp//wAi1keJdM17RtJhurXxxrjvJqFlakSW9gRtmuooWPFsOQshI98deld3XN+PP+Rdtf8AsNaV/wCnC3oAP+EX1f8A6HvxB/340/8A+RaP+EX1f/oe/EH/AH40/wD+Ra6SigDhPDWma9rOkzXV1441xHj1C9tQI7ewA2w3UsKnm2PJWME++enStf8A4RfV/wDoe/EH/fjT/wD5Fo8B/wDIu3X/AGGtV/8AThcV0lAHCW2ma9N401LSG8ca4Le10+0ukYW9hvLSyXCsCfs2MYhXHHc9eMa//CL6v/0PfiD/AL8af/8AItFj/wAlT13/ALAum/8Ao++rpKAPP/Fmg6jZaXY3Fz4s1jUIk1rS91tcxWYjfN/AOTHArcZzww5HccV6BXN+PP8AkXbX/sNaV/6cLeukoAKKKKACiiigAooooAK5vxR/yMXgz/sNSf8ApvvK6Sub8Uf8jF4M/wCw1J/6b7ygDpK5ux/5Knrv/YF03/0ffV0lc3Y/8lT13/sC6b/6PvqAOkooooAKKKKACiiigAooooAzfEf/ACKuq/8AXlN/6Aa0qzfEf/Iq6r/15Tf+gGtKgAooooAzdB/5B0v/AF+3X/pRJWlWboP/ACDpf+v26/8ASiStKgAooooAKKKKACiiigAooooAKKKKAKE3/IxWf/XrP/6HFV+qE3/IxWf/AF6z/wDocVX6ACiiigCjE5RS68lYyR7/ACpVyNBHGqDkKABmqtuoZgrDKlCCD3+VKfFK2NsbR3CqPvK/zY9x0/HIoAs0VH52PvxyKf8Adz/LNH2iLvIqn0Y4P5GgCSio/Ph/56p/30KPPh/56p/30KAJKKj+0Q9pVJ9Ack0ecD91JGPpsI/ngUASVXXibb2WY4/FM/zJpzSSbSdixj1kbp74H+NRMypCskTiQ7mYuDnJ2mgCS0/1R/4D/wCgip6it12xnH94j8uP6VLQAUUUUAFQPxdAnoNufx3D+ZqeoJ/9an4f+hLQAlvyyZ/hhXHtnOf5CrFVAwjjhdZI1ZowNrtgOP8AJ/Wp/Mcffhb3KkEf4/pQBJRUfnp33KPVkIH5mj7RDjPnR4/3hQBJRUfnw/8APVP++hR9oh/56x/99CgCSio/PjP3SWHqilh+Yo81j9yFz6FsAf4/pQAk/AjYdVcfrx/WoY/+Pgf75/m9PzvnVZpIwynIiVskn1Pr+VMT/j5H++f5vQBbooooAK5v4cf8ks8Kf9gWz/8ARCV0lc38OP8AklnhT/sC2f8A6ISgA8ef8i7a/wDYa0r/ANOFvXSVzfjz/kXbX/sNaV/6cLeukoAKKKKACiiigAooooAKKKKACiiigAooooAKKKKACiiigAooooA5vx5/yLtr/wBhrSv/AE4W9dJXN+PP+Rdtf+w1pX/pwt66SgArm/Af/Iu3X/Ya1X/04XFdJXN+A/8AkXbr/sNar/6cLigDpK5u+/5KnoX/AGBdS/8AR9jXSVzd9/yVPQv+wLqX/o+xoA6Sub8ef8i7a/8AYa0r/wBOFvXSVzfjz/kXbX/sNaV/6cLegDpKKKKAOb8B/wDIu3X/AGGtV/8AThcV0lc34D/5F26/7DWq/wDpwuK6SgDm7H/kqeu/9gXTf/R99XSVzdj/AMlT13/sC6b/AOj76ukoA5vx5/yLtr/2GtK/9OFvXSVzfjz/AJF21/7DWlf+nC3rpKACiiigAooooAKKKKACub8Uf8jF4M/7DUn/AKb7yukrm/FH/IxeDP8AsNSf+m+8oA6Subsf+Sp67/2BdN/9H31dJXN2P/JU9d/7Aum/+j76gDpKKKKACiiigAooooAKKKKAM3xH/wAirqv/AF5Tf+gGtKs3xH/yKuq/9eU3/oBrSoAKKKKAM3Qf+QdL/wBft1/6USVpVm6D/wAg6X/r9uv/AEokrSoAKKKKACiiigAooooAKKKKACiiigChN/yMVn/16z/+hxVfqhN/yMVn/wBes/8A6HFV+gAoopGG5SMkZGMjtQBnpyJEYAhMq+DkEAJn9KvPEkmN6gkdD3H0PaqfAt2ZVC5BGFGAB5YP9BV+gCPyQPutID67yf50eW3/AD2k/Jf8KkooAj8tv+ez/kv+FHlt/wA9n/Jf8KkooAj8tv8Ans/5L/hR5OfvySN+OP5YqSigCMQRhgxXcR0LEsR9M9Kr3eFaQ9PkyeOvyvVyqlxz5h7glf8Axwn+tAE9vkwBjj5iW4OepzUlRxAB5QBgb+30FSUAFFFFABVa6O2SEnGC4XrzksD/AEqzVeUAzEkcjy8H0+b/AOsKAC0AMbHHJCg/TaP8akFvGPugoPRGKj8hUdrwAOxjRvxxj+gqxQBH5RH3ZZAPTg/zFHlt/wA9n/Jf8KkooAj8tv8Ans/5L/hR5bf89n/Jf8KkooAj8tv+ez/kv+FHkIepc/WRv8akooAhljRLV1VFUAZUAY57fjmoIjm+2DHy5c5PP3nHH51Zn/1Y/wB9f/QhVdBukQ4GWKsD/dyWP8uKALlFFFABXN/Dj/klnhT/ALAtn/6ISukrm/hx/wAks8Kf9gWz/wDRCUAHjz/kXbX/ALDWlf8Apwt66Sub8ef8i7a/9hrSv/Thb10lABRRRQAUUUUAFFFFABRRRQAUUUUAFFFFABRRRQAUUUUAFFFFAHN+PP8AkXbX/sNaV/6cLeukrm/Hn/Iu2v8A2GtK/wDThb10lABXN+A/+Rduv+w1qv8A6cLiukrm/Af/ACLt1/2GtV/9OFxQB0lc3ff8lT0L/sC6l/6Psa6Subvv+Sp6F/2BdS/9H2NAHSVzfjz/AJF21/7DWlf+nC3rpK5vx5/yLtr/ANhrSv8A04W9AHSUUUUAc34D/wCRduv+w1qv/pwuK6Sub8B/8i7df9hrVf8A04XFdJQBzdj/AMlT13/sC6b/AOj76ukrm7H/AJKnrv8A2BdN/wDR99XSUAc348/5F21/7DWlf+nC3rpK5vx5/wAi7a/9hrSv/Thb10lABRRRQAUUUUAFFFFABXN+KP8AkYvBn/Yak/8ATfeV0lc34o/5GLwZ/wBhqT/033lAHSVzdj/yVPXf+wLpv/o++rpK5ux/5Knrv/YF03/0ffUAdJRRRQAUUUUAFFFFABRRRQBm+I/+RV1X/rym/wDQDWlWb4j/AORV1X/rym/9ANaVABRRRQBm6D/yDpf+v26/9KJK0qzdB/5B0v8A1+3X/pRJWlQAUUUUAFFFFABRRRQAUUUUAFFFFAFCb/kYrP8A69Z//Q4qv1Qm/wCRis/+vWf/ANDiq/QAUUUUAUGH7pVUdYhwP9xv8KvgggEHIPQiqkX+sg/3E/8AQWqeD/j2i/3B/KgCSiiigAooooAKKKKACqk/3Zf98/8AourdU5MGU5+6z/nyqn+ooAsRc72/vOf04/pUlRw/6s/77f8AoRqSgAooooAKrz8Srj+LGfwYY/masVXue/8A1yf+lABbdcdxEgI9DzViq8PEp/2t34YY/wCNWKACiiigAooooAKKKKAI5v8AVj/fX/0IVBDz5TehVfw2E/1qeT/WRf7/AP7Kagt/ux4/vj/0XQBbooooAK5v4cf8ks8Kf9gWz/8ARCV0lc38OP8AklnhT/sC2f8A6ISgA8ef8i7a/wDYa0r/ANOFvXSVzfjz/kXbX/sNaV/6cLeukoAKKKKACiiigAooooAKKKKACiiigAooooAKKKKACiiigAooooA5vx5/yLtr/wBhrSv/AE4W9dJXN+PP+Rdtf+w1pX/pwt66SgArm/Af/Iu3X/Ya1X/04XFdJXN+A/8AkXbr/sNar/6cLigDpK5u+/5KnoX/AGBdS/8AR9jXSVzd9/yVPQv+wLqX/o+xoA6Sub8ef8i7a/8AYa0r/wBOFvXSVzfjz/kXbX/sNaV/6cLegDpKKKKAOb8B/wDIu3X/AGGtV/8AThcV0lc34D/5F26/7DWq/wDpwuK6SgDm7H/kqeu/9gXTf/R99XSVzdj/AMlT13/sC6b/AOj76ukoA5vx5/yLtr/2GtK/9OFvXSVzfjz/AJF21/7DWlf+nC3rpKACiiigAooooAKKKKACub8Uf8jF4M/7DUn/AKb7yukrm/FH/IxeDP8AsNSf+m+8oA6Subsf+Sp67/2BdN/9H31dJXN2P/JU9d/7Aum/+j76gDpKKKKACiiigAooooAKKKKAMTxbqFpZeG76K6uEie4tZkiVjgu2w8D8xWnZX9rqNv59jOk8WSN6HIyK4/4qWvm+HLe4H3obgD8GU/1ArX8CWwtfBdgMYMitI3vuYkfpigDoaKKq6lqEOladNe3W7yYRl9i5OM46fjQBX0H/AJB0v/X7df8ApRJWlXM+DvEVjq0Vxa2hkMkc887bkwNrzOy/jhhXTUAFFFFABRRRQAUUUUAFFFFABRRRQBQm/wCRis/+vWf/ANDiq/VCb/kYrP8A69Z//Q4qv0AFFFFAFIqV2/vfJkj+UF1yrAdD27H17mnRSmKJE8+3k2gDg7f6mrdFAEQkkIDeWrKf7j5/mBS+Y/8Azwk/Nf8AGkktYJWBeNSQc5HB/MUJawIoVYUwPUZoAXz1/uyf9+2/wo89fST/AL9t/hR5CDpuUeisQPyFHkr6v/38b/GgA80n7sUjD14H8zRvkP3Ysf77AfyzR9nh/wCeSf8AfIpi2NsrbhEuQcgHkD8KAAzkEgvAh6ZMmcfhxUKhdyl7lZNpJ2xLknLZ9Se1XQAAABgDoBRQAyEMIhvGGJLEemTnFPoooAKKKKACoZxyCwYoVZG2gkjPfj6frU1FAFFMpIG+2QkANwy88kE/xf0qwszucL5LH0Ev/wBapqRkVxh1DD0IzQAzzHHWFifYjH86POx9+ORf+A5/lmo1sbZGBWFeBgA8gfhUnkRdkCn1Xg/mKADzl9H/AO/bf4UecD91JCfTYR/OjyV9X/7+N/jR5EZ+8u//AHzu/nQAeY//ADwk/Nf8aa0siDLLEo/2pMf0oezt5CC0S5HQgY/lT4oIoRiKNV9wOfzoArySFyp+1QJtJIHXBwR1z7+lLAg3IqFmVPmZyMAnGAB+H8qtUUAFFFFABXN/Dj/klnhT/sC2f/ohK6Sub+HH/JLPCn/YFs//AEQlAB48/wCRdtf+w1pX/pwt66Ss3X9Fj8QaQ1hLdXFp++hnSe22eZG8UqSoRvVl+8i8EEYrN/4RfV/+h78Qf9+NP/8AkWgDpKK5vwjNqH2vxFYalqdxqf8AZ2prBBPcxxJJsa0t5cHykRThpW5xnFdJQAUUUUAFFFFABRRRQAUVyV7Hqur+PtQ0228RahpNpZ6ZZzrHZRWzb3lluVYsZYXPSFMAEDr61Z/4RfV/+h78Qf8AfjT/AP5FoA6Siub/AOEX1f8A6HvxB/340/8A+RaP+EX1f/oe/EH/AH40/wD+RaAOkorm/wDhF9X/AOh78Qf9+NP/APkWj/hF9X/6HvxB/wB+NP8A/kWgDpKK5v8A4RfV/wDoe/EH/fjT/wD5Fo/4RfV/+h78Qf8AfjT/AP5FoA6Siub/AOEX1f8A6HvxB/340/8A+RaP+EX1f/oe/EH/AH40/wD+RaADx5/yLtr/ANhrSv8A04W9dJXJX/ge91O2SC+8beIJYkminVfKsFw8UiyIeLbs6KcdDjByKs/8Ivq//Q9+IP8Avxp//wAi0AdJXN+A/wDkXbr/ALDWq/8ApwuKP+EX1f8A6HvxB/340/8A+RarWHge90y2eCx8beIIonmlnZfKsGy8sjSOebbu7scdBnAwKAOtrm77/kqehf8AYF1L/wBH2NH/AAi+r/8AQ9+IP+/Gn/8AyLVaTwPey6rBqT+NvEBu7eGSCKTyrD5UkZGcY+zYOTEnJGRt46nIB1tc348/5F21/wCw1pX/AKcLej/hF9X/AOh78Qf9+NP/APkWq1/4HvdTtkgvvG3iCWJJop1XyrBcPFIsiHi27OinHQ4wcigDraK5v/hF9X/6HvxB/wB+NP8A/kWj/hF9X/6HvxB/340//wCRaADwH/yLt1/2GtV/9OFxXSVyVh4HvdMtngsfG3iCKJ5pZ2XyrBsvLI0jnm27u7HHQZwMCrP/AAi+r/8AQ9+IP+/Gn/8AyLQAWP8AyVPXf+wLpv8A6Pvq6SuSj8D3sWqz6knjbxALu4hjglk8qw+ZI2dkGPs2BgyvyBk7uegxZ/4RfV/+h78Qf9+NP/8AkWgA8ef8i7a/9hrSv/Thb10lclf+B73U7ZIL7xt4gliSaKdV8qwXDxSLIh4tuzopx0OMHIqz/wAIvq//AEPfiD/vxp//AMi0AdJRXN/8Ivq//Q9+IP8Avxp//wAi0f8ACL6v/wBD34g/78af/wDItAHSUVzf/CL6v/0PfiD/AL8af/8AItH/AAi+r/8AQ9+IP+/Gn/8AyLQB0lFc3/wi+r/9D34g/wC/Gn//ACLR/wAIvq//AEPfiD/vxp//AMi0AdJXN+KP+Ri8Gf8AYak/9N95R/wi+r/9D34g/wC/Gn//ACLRD4Rn/tfTr/UvE+san/Z0zTwQXKWiR72ieLJ8qBGOFlbjOM0AdJXN2P8AyVPXf+wLpv8A6Pvq6C4gS6gaGQyKrYyYpGjbrnhlII/A1yNnpNu3xJ1m3Ml5sj0mwcEXswclprwHL7txHyjAJwOSANxyAdlRWb/YNp/z21D/AMGVx/8AF0f2Daf89tQ/8GVx/wDF0AaVFZv9g2n/AD21D/wZXH/xdH9g2n/PbUP/AAZXH/xdAGlRWb/YNp/z21D/AMGVx/8AF0f2Daf89tQ/8GVx/wDF0AaVFZv9g2n/AD21D/wZXH/xdH9g2n/PbUP/AAZXH/xdAFPxva/a/BmooF3MsYkGBkjaQ38ga1dOtvsel2tsRjyYUjx9FA/pVR/D1jJGySPfOjAhlbUbggg9iN9SR6LaxSpIst8WRgwDX87DI9QXwR7GgDQrP162F54d1C3Iz5lu4H12nH64rQooA89+E1ttsdRuiv35UjDY/ugkj/x4V6FXPeCdNOl+HmhYbWN1MSPTDlP5LXQ0AFFFFABRRRQAUUUUAFFFFABRRRQBBc2Npe7ftlrDcbM7fNjDbc9cZ+lV/wCwtJ/6Bdl/4Dp/hV+igCh/YWk/9Auy/wDAdP8ACj+wtJ/6Bdl/4Dp/hV+igCh/YWk/9Auy/wDAdP8ACj+wtJ/6Bdl/4Dp/hV+igCh/YWk/9Auy/wDAdP8ACj+wtJ/6Bdl/4Dp/hV+igCh/YWk/9Auy/wDAdP8ACj+wtJ/6Bdl/4Dp/hV+igCh/YWk/9Auy/wDAdP8ACj+wtJ/6Bdl/4Dp/hV+igCh/YWk/9Auy/wDAdP8ACj+wtJ/6Bdl/4Dp/hV+igCh/YWk/9Auy/wDAdP8ACj+wtJ/6Bdl/4Dp/hV+igCh/YWk/9Auy/wDAdP8ACj+wtJ/6Bdl/4Dp/hV+igCh/YWk/9Auy/wDAdP8ACj+wtJ/6Bdl/4Dp/hV+igCh/YWk/9Auy/wDAdP8ACj+wtJ/6Bdl/4Dp/hV+igCh/YWk/9Auy/wDAdP8ACj+wtJ/6Bdl/4Dp/hV+igCh/YWk/9Auy/wDAdP8ACj+wtJ/6Bdl/4Dp/hV+igCh/YWk/9Auy/wDAdP8ACj+wtJ/6Bdl/4Dp/hV+igCh/YWk/9Auy/wDAdP8ACj+wtJ/6Bdl/4Dp/hV+igCh/YWk/9Auy/wDAdP8ACj+wtJ/6Bdl/4Dp/hV+igCh/YWk/9Auy/wDAdP8ACsyX4feDJ5nmn8I6DJLIxZ3fTISzE8kkleTXRUUAc3/wrjwR/wBCb4f/APBXB/8AE0f8K48Ef9Cb4f8A/BXB/wDE10lFAFHStF0rQbVrXQ9Ms9Nt3cyNFZ26wozEAFiFAGcADPsKvUUUAFFFFABRRRQAUUUUAZGq+E/DmvXS3WuaBpepXCII1lvLKOZ1UEkKCwJxkk49zVL/AIVx4I/6E3w//wCCuD/4mukooA5v/hXHgj/oTfD/AP4K4P8A4mj/AIVx4I/6E3w//wCCuD/4mukooA5v/hXHgj/oTfD/AP4K4P8A4mj/AIVx4I/6E3w//wCCuD/4mukooA5v/hXHgj/oTfD/AP4K4P8A4mj/AIVx4I/6E3w//wCCuD/4mukooA5v/hXHgj/oTfD/AP4K4P8A4mj/AIVx4I/6E3w//wCCuD/4mukooA5v/hXHgj/oTfD/AP4K4P8A4mj/AIVx4I/6E3w//wCCuD/4mukooA5v/hXHgj/oTfD/AP4K4P8A4mj/AIVx4I/6E3w//wCCuD/4mukooA5v/hXHgj/oTfD/AP4K4P8A4mj/AIVx4I/6E3w//wCCuD/4mukooA5v/hXHgj/oTfD/AP4K4P8A4mj/AIVx4I/6E3w//wCCuD/4mukooA5v/hXHgj/oTfD/AP4K4P8A4mj/AIVx4I/6E3w//wCCuD/4mukooA5v/hXHgj/oTfD/AP4K4P8A4mj/AIVx4I/6E3w//wCCuD/4mukooA5v/hXHgj/oTfD/AP4K4P8A4mj/AIVx4I/6E3w//wCCuD/4mukooA5v/hXHgj/oTfD/AP4K4P8A4mj/AIVx4I/6E3w//wCCuD/4mukooA5v/hXHgj/oTfD/AP4K4P8A4mj/AIVx4I/6E3w//wCCuD/4mukooA5v/hXHgj/oTfD/AP4K4P8A4mj/AIVx4I/6E3w//wCCuD/4mukooA5v/hXHgj/oTfD/AP4K4P8A4mj/AIVx4I/6E3w//wCCuD/4mukooA5v/hXHgj/oTfD/AP4K4P8A4mj/AIVx4I/6E3w//wCCuD/4mukooA5v/hXHgj/oTfD/AP4K4P8A4mtLSPDmh+H/ADv7B0bT9M8/b5v2K1SHzNucbtoGcZOM+prSooArXmm2OobPt9nb3Xl52edEr7c9cZHHQVW/4RzQ/wDoDaf/AOAqf4VpUUAZv/COaH/0BtP/APAVP8KP+Ec0P/oDaf8A+Aqf4VpUUAZv/COaH/0BtP8A/AVP8KP+Ec0P/oDaf/4Cp/hWlRQBm/8ACOaH/wBAbT//AAFT/Cj/AIRzQ/8AoDaf/wCAqf4VpUUAZv8Awjmh/wDQG0//AMBU/wAKP+Ec0P8A6A2n/wDgKn+FaVFAGb/wjmh/9AbT/wDwFT/Cj/hHND/6A2n/APgKn+FaVFAGb/wjmh/9AbT/APwFT/CtCONIYkihRY40UKqKMBQOgA7CnUUAFFFFABRRRQAUUUUAFFFFABRRRQAUUUUAFFFFABRRRQAUUUUAFFFFABRRRQAUUUUAFFFFABRRRQAUUUUAFFFFABRRRQAUUUUAFFFFABRRRQAUUUUAFFFFABRRRQAUUUUAFFFFABRRRQAUUUUAFFFFABRRRQAUUUUAFFFFABRRRQAUUUUAFFFFABRRRQAUUUUAFFFFABRRRQAUUUUAFFFFABRRRQAUUUUAFFFFABRRRQAUUUUAFFFFABRRRQAUUUUAFFFFABRRRQAUUUUAFFFFABRRRQAUUUUAFFFFABRRRQAUUUUAFFFFABRRRQAUUUUAFFFFABRRRQAUUUUAFFFFABRRRQAUUUUAFFFFABRRRQAUUUUAFFFFABRRRQAUUUUAFFFFABRRRQAUUUUAFFFFABRRRQAUUUUAFFFFABRRRQAUUUUAFFFFABRRRQAUUUUAFFFFABRRRQAUUUUAFFFFABRRRQAUUUUAFFFFABRRRQAUUUUAFFFFABRRRQAUUUUAFFFFABRRRQAUUUUAFFFFABRRRQAUUUUAFFFFABRRRQAUUUUAFFFFAH//2Q==;" vertex="1" parent="1">
          <mxGeometry x="40" y="80" width="1088.89" height="490" as="geometry" />
        </mxCell>
        <mxCell id="5JtWziqyKiXYq5l_9ciY-2" value="" style="verticalLabelPosition=bottom;html=1;verticalAlign=top;align=center;shape=mxgraph.floorplan.wall;fillColor=#000000;" vertex="1" parent="1">
          <mxGeometry x="460" y="270" width="100" height="10" as="geometry" />
        </mxCell>
        <mxCell id="5JtWziqyKiXYq5l_9ciY-3" value="" style="verticalLabelPosition=bottom;html=1;verticalAlign=top;align=center;shape=mxgraph.floorplan.wall;fillColor=#000000;direction=south;" vertex="1" parent="1">
          <mxGeometry x="560" y="170" width="10" height="350" as="geometry" />
        </mxCell>
        <mxCell id="5JtWziqyKiXYq5l_9ciY-4" value="" style="verticalLabelPosition=bottom;html=1;verticalAlign=top;align=center;shape=mxgraph.floorplan.wall;fillColor=#FF0000;direction=south;" vertex="1" parent="1">
          <mxGeometry x="450" y="270" width="10" height="250" as="geometry" />
        </mxCell>
        <mxCell id="5JtWziqyKiXYq5l_9ciY-5" value="" style="verticalLabelPosition=bottom;html=1;verticalAlign=top;align=center;shape=mxgraph.floorplan.wall;fillColor=#FF0000;direction=south;" vertex="1" parent="1">
          <mxGeometry x="460" y="275" width="10" height="245" as="geometry" />
        </mxCell>
      </root>
    </mxGraphModel>
  </diagram>
</mxfile>
